<?xml version="1.0" encoding="UTF-8"?>
<svg id="Layer_2" data-name="Layer 2" xmlns="http://www.w3.org/2000/svg" viewBox="0 0 157.52 116.17">
  <defs>
    <style>
      .cls-1 {
        fill: #fff;
      }

      .cls-2 {
        fill: #fffde8;
      }
    </style>
  </defs>
  <g id="Layer_1-2" data-name="Layer 1">
    <g>
      <g>
        <g>
          <path class="cls-1" d="M119.49,71.21c-9.46,0-18.35-3.68-25.04-10.37-6.69-6.69-10.37-15.58-10.37-25.04s3.68-18.35,10.37-25.04C101.14,4.08,110.04.39,119.49.39s18.35,3.68,25.04,10.37c6.69,6.69,10.37,15.58,10.37,25.04s-3.68,18.35-10.37,25.04c-6.69,6.69-15.58,10.37-25.04,10.37ZM119.49.84c-19.28,0-34.96,15.68-34.96,34.96s15.68,34.96,34.96,34.96,34.96-15.68,34.96-34.96S138.77.84,119.49.84Z"/>
          <path class="cls-1" d="M113.37,23.24c-.45-.16-.88-.4-1.28-.69v-.02c1.06-.77,2.21-1.35,3.46-1.73.05-.05.1-.11.14-.11v.03c.14.03.24-.13.35-.02.11.1.22.14.3.22-1.04.64-2.05,1.39-2.98,2.31Z"/>
          <path class="cls-1" d="M117.54,21.68c-.63.77-1.14,1.64-1.62,2.47l-.06.02c-.69-.18-1.35-.38-2-.67l.03-.11c.91-.87,1.89-1.59,2.97-2.13.24.1.48.18.74.29l-.05.14Z"/>
          <path class="cls-1" d="M119.22,21.86c.05.85.02,1.84.02,2.74-.46.06-.88-.02-1.35-.05-.45-.05-1.03-.11-1.47-.26.48-.91,1.06-1.78,1.75-2.58l1.06.14Z"/>
          <path class="cls-1" d="M120.78,21.73c.66.82,1.3,1.65,1.73,2.57-.9.21-1.81.32-2.76.32-.03-.87-.02-1.84,0-2.74.34-.05.71-.11,1.03-.14Z"/>
          <path class="cls-1" d="M116.64,20.5c1.8-.4,3.88-.43,5.63,0v.03c-1.46,1.04-3.8,1.15-5.35.18-.08-.06-.26-.11-.27-.21Z"/>
          <path class="cls-1" d="M122.09,21.22c1.09.53,2.15,1.31,3.03,2.18l-.03.06c-.66.29-1.31.54-2.04.69-.53-.87-1.09-1.73-1.73-2.58.24-.13.53-.22.77-.35Z"/>
          <path class="cls-1" d="M125.6,23.21c-.88-.88-1.92-1.65-2.97-2.26.02-.11.19-.21.3-.29,1.41.37,2.73.99,3.93,1.84l-.03.06-1.15.64h-.08Z"/>
          <path class="cls-1" d="M131.16,30.21c-.42-.53-1.06-.63-1.7-.63-.63.03-1.3.21-1.55.85-.32,1.04-.22,2.23-.18,3.35.05.58.11,1.19.64,1.55.61.34,1.51.43,2.18.13.42-.14.67-.56.77-.96.16-.95.1-2.07.11-2.98-.03-.45-.02-.95-.27-1.31ZM131.16,30.21c-.42-.53-1.06-.63-1.7-.63-.63.03-1.3.21-1.55.85-.32,1.04-.22,2.23-.18,3.35.05.58.11,1.19.64,1.55.61.34,1.51.43,2.18.13.42-.14.67-.56.77-.96.16-.95.1-2.07.11-2.98-.03-.45-.02-.95-.27-1.31ZM131.16,30.21c-.42-.53-1.06-.63-1.7-.63-.63.03-1.3.21-1.55.85-.32,1.04-.22,2.23-.18,3.35.05.58.11,1.19.64,1.55.61.34,1.51.43,2.18.13.42-.14.67-.56.77-.96.16-.95.1-2.07.11-2.98-.03-.45-.02-.95-.27-1.31ZM131.16,30.21c-.42-.53-1.06-.63-1.7-.63-.63.03-1.3.21-1.55.85-.32,1.04-.22,2.23-.18,3.35.05.58.11,1.19.64,1.55.61.34,1.51.43,2.18.13.42-.14.67-.56.77-.96.16-.95.1-2.07.11-2.98-.03-.45-.02-.95-.27-1.31ZM106.35,48.82c-.29,0-.46.11-.46.45v.83c0,.34.18.46.46.46s.46-.13.46-.46v-.83c0-.34-.18-.45-.46-.45ZM113.37,41.87c-.42.18-.82.45-1.22.69v.05c1.2.87,2.5,1.49,3.91,1.84.11-.06.26-.16.32-.27-1.07-.67-2.05-1.36-3.01-2.31ZM116.02,40.94l-.08-.02c-.71.18-1.38.4-2.04.72v.03c.88.91,1.94,1.67,3.05,2.21.22-.14.51-.21.75-.35-.61-.85-1.2-1.7-1.68-2.6ZM119.3,40.46c-.93,0-1.83.13-2.69.29l-.1.06c.48.9,1.04,1.78,1.73,2.58.34-.1.72-.1,1.07-.16l-.02-2.77ZM116.86,44.48s-.16.08-.13.16c1.76.42,3.75.4,5.51.03.05-.03.16,0,.13-.11-1.54-1.07-3.94-1.07-5.51-.08ZM122.62,40.78c-.9-.21-1.84-.3-2.79-.32-.06.96-.05,1.83-.02,2.81l.27.02c.29.02.56.13.85.1.64-.8,1.23-1.67,1.7-2.55l-.02-.05ZM123.15,40.92l-.05.03c-.46.87-.99,1.68-1.62,2.48l-.03.11.72.32c.4-.19.77-.45,1.15-.67.66-.43,1.33-.98,1.86-1.57-.63-.32-1.31-.54-2.04-.71ZM125.68,41.85c-.91.9-1.89,1.65-2.95,2.28l-.03.05c.13.1.24.21.38.26l.77-.22c1.11-.42,2.2-.91,3.13-1.65-.42-.27-.85-.53-1.3-.71ZM131.16,30.21c-.42-.53-1.06-.63-1.7-.63-.63.03-1.3.21-1.55.85-.32,1.04-.22,2.23-.18,3.35.05.58.11,1.19.64,1.55.61.34,1.51.43,2.18.13.42-.14.67-.56.77-.96.16-.95.1-2.07.11-2.98-.03-.45-.02-.95-.27-1.31ZM131.16,30.21c-.42-.53-1.06-.63-1.7-.63-.63.03-1.3.21-1.55.85-.32,1.04-.22,2.23-.18,3.35.05.58.11,1.19.64,1.55.61.34,1.51.43,2.18.13.42-.14.67-.56.77-.96.16-.95.1-2.07.11-2.98-.03-.45-.02-.95-.27-1.31ZM125.68,41.85c-.91.9-1.89,1.65-2.95,2.28l-.03.05c.13.1.24.21.38.26l.77-.22c1.11-.42,2.2-.91,3.13-1.65-.42-.27-.85-.53-1.3-.71ZM123.15,40.92l-.05.03c-.46.87-.99,1.68-1.62,2.48l-.03.11.72.32c.4-.19.77-.45,1.15-.67.66-.43,1.33-.98,1.86-1.57-.63-.32-1.31-.54-2.04-.71ZM122.62,40.78c-.9-.21-1.84-.3-2.79-.32-.06.96-.05,1.83-.02,2.81l.27.02c.29.02.56.13.85.1.64-.8,1.23-1.67,1.7-2.55l-.02-.05ZM116.86,44.48s-.16.08-.13.16c1.76.42,3.75.4,5.51.03.05-.03.16,0,.13-.11-1.54-1.07-3.94-1.07-5.51-.08ZM119.3,40.46c-.93,0-1.83.13-2.69.29l-.1.06c.48.9,1.04,1.78,1.73,2.58.34-.1.72-.1,1.07-.16l-.02-2.77ZM116.02,40.94l-.08-.02c-.71.18-1.38.4-2.04.72v.03c.88.91,1.94,1.67,3.05,2.21.22-.14.51-.21.75-.35-.61-.85-1.2-1.7-1.68-2.6ZM113.37,41.87c-.42.18-.82.45-1.22.69v.05c1.2.87,2.5,1.49,3.91,1.84.11-.06.26-.16.32-.27-1.07-.67-2.05-1.36-3.01-2.31ZM106.35,48.82c-.29,0-.46.11-.46.45v.83c0,.34.18.46.46.46s.46-.13.46-.46v-.83c0-.34-.18-.45-.46-.45ZM106.35,48.82c-.29,0-.46.11-.46.45v.83c0,.34.18.46.46.46s.46-.13.46-.46v-.83c0-.34-.18-.45-.46-.45ZM109.57,48.81c-.29,0-.46.13-.46.46v2.53c0,.32.18.46.46.46s.46-.14.46-.46v-2.53c0-.34-.18-.46-.46-.46ZM112.78,48.81c-.29,0-.46.13-.46.46v2.53c0,.32.18.46.46.46s.46-.14.46-.46v-2.53c0-.34-.18-.46-.46-.46ZM113.37,41.87c-.42.18-.82.45-1.22.69v.05c1.2.87,2.5,1.49,3.91,1.84.11-.06.26-.16.32-.27-1.07-.67-2.05-1.36-3.01-2.31ZM116.02,40.94l-.08-.02c-.71.18-1.38.4-2.04.72v.03c.88.91,1.94,1.67,3.05,2.21.22-.14.51-.21.75-.35-.61-.85-1.2-1.7-1.68-2.6ZM119.3,40.46c-.93,0-1.83.13-2.69.29l-.1.06c.48.9,1.04,1.78,1.73,2.58.34-.1.72-.1,1.07-.16l-.02-2.77ZM116.86,44.48s-.16.08-.13.16c1.76.42,3.75.4,5.51.03.05-.03.16,0,.13-.11-1.54-1.07-3.94-1.07-5.51-.08ZM122.62,40.78c-.9-.21-1.84-.3-2.79-.32-.06.96-.05,1.83-.02,2.81l.27.02c.29.02.56.13.85.1.64-.8,1.23-1.67,1.7-2.55l-.02-.05ZM123.15,40.92l-.05.03c-.46.87-.99,1.68-1.62,2.48l-.03.11.72.32c.4-.19.77-.45,1.15-.67.66-.43,1.33-.98,1.86-1.57-.63-.32-1.31-.54-2.04-.71ZM125.68,41.85c-.91.9-1.89,1.65-2.95,2.28l-.03.05c.13.1.24.21.38.26l.77-.22c1.11-.42,2.2-.91,3.13-1.65-.42-.27-.85-.53-1.3-.71ZM131.16,30.21c-.42-.53-1.06-.63-1.7-.63-.63.03-1.3.21-1.55.85-.32,1.04-.22,2.23-.18,3.35.05.58.11,1.19.64,1.55.61.34,1.51.43,2.18.13.42-.14.67-.56.77-.96.16-.95.1-2.07.11-2.98-.03-.45-.02-.95-.27-1.31ZM131.16,30.21c-.42-.53-1.06-.63-1.7-.63-.63.03-1.3.21-1.55.85-.32,1.04-.22,2.23-.18,3.35.05.58.11,1.19.64,1.55.61.34,1.51.43,2.18.13.42-.14.67-.56.77-.96.16-.95.1-2.07.11-2.98-.03-.45-.02-.95-.27-1.31ZM125.68,41.85c-.91.9-1.89,1.65-2.95,2.28l-.03.05c.13.1.24.21.38.26l.77-.22c1.11-.42,2.2-.91,3.13-1.65-.42-.27-.85-.53-1.3-.71ZM123.15,40.92l-.05.03c-.46.87-.99,1.68-1.62,2.48l-.03.11.72.32c.4-.19.77-.45,1.15-.67.66-.43,1.33-.98,1.86-1.57-.63-.32-1.31-.54-2.04-.71ZM122.62,40.78c-.9-.21-1.84-.3-2.79-.32-.06.96-.05,1.83-.02,2.81l.27.02c.29.02.56.13.85.1.64-.8,1.23-1.67,1.7-2.55l-.02-.05ZM116.86,44.48s-.16.08-.13.16c1.76.42,3.75.4,5.51.03.05-.03.16,0,.13-.11-1.54-1.07-3.94-1.07-5.51-.08ZM119.3,40.46c-.93,0-1.83.13-2.69.29l-.1.06c.48.9,1.04,1.78,1.73,2.58.34-.1.72-.1,1.07-.16l-.02-2.77ZM116.02,40.94l-.08-.02c-.71.18-1.38.4-2.04.72v.03c.88.91,1.94,1.67,3.05,2.21.22-.14.51-.21.75-.35-.61-.85-1.2-1.7-1.68-2.6ZM113.37,41.87c-.42.18-.82.45-1.22.69v.05c1.2.87,2.5,1.49,3.91,1.84.11-.06.26-.16.32-.27-1.07-.67-2.05-1.36-3.01-2.31ZM112.78,48.81c-.29,0-.46.13-.46.46v2.53c0,.32.18.46.46.46s.46-.14.46-.46v-2.53c0-.34-.18-.46-.46-.46ZM109.57,48.81c-.29,0-.46.13-.46.46v2.53c0,.32.18.46.46.46s.46-.14.46-.46v-2.53c0-.34-.18-.46-.46-.46ZM106.35,48.82c-.29,0-.46.11-.46.45v.83c0,.34.18.46.46.46s.46-.13.46-.46v-.83c0-.34-.18-.45-.46-.45ZM106.35,48.82c-.29,0-.46.11-.46.45v.83c0,.34.18.46.46.46s.46-.13.46-.46v-.83c0-.34-.18-.45-.46-.45ZM109.57,48.81c-.29,0-.46.13-.46.46v2.53c0,.32.18.46.46.46s.46-.14.46-.46v-2.53c0-.34-.18-.46-.46-.46ZM112.78,48.81c-.29,0-.46.13-.46.46v2.53c0,.32.18.46.46.46s.46-.14.46-.46v-2.53c0-.34-.18-.46-.46-.46ZM113.37,41.87c-.42.18-.82.45-1.22.69v.05c1.2.87,2.5,1.49,3.91,1.84.11-.06.26-.16.32-.27-1.07-.67-2.05-1.36-3.01-2.31ZM116.02,40.94l-.08-.02c-.71.18-1.38.4-2.04.72v.03c.88.91,1.94,1.67,3.05,2.21.22-.14.51-.21.75-.35-.61-.85-1.2-1.7-1.68-2.6ZM119.3,40.46c-.93,0-1.83.13-2.69.29l-.1.06c.48.9,1.04,1.78,1.73,2.58.34-.1.72-.1,1.07-.16l-.02-2.77ZM116.86,44.48s-.16.08-.13.16c1.76.42,3.75.4,5.51.03.05-.03.16,0,.13-.11-1.54-1.07-3.94-1.07-5.51-.08ZM122.62,40.78c-.9-.21-1.84-.3-2.79-.32-.06.96-.05,1.83-.02,2.81l.27.02c.29.02.56.13.85.1.64-.8,1.23-1.67,1.7-2.55l-.02-.05ZM123.15,40.92l-.05.03c-.46.87-.99,1.68-1.62,2.48l-.03.11.72.32c.4-.19.77-.45,1.15-.67.66-.43,1.33-.98,1.86-1.57-.63-.32-1.31-.54-2.04-.71ZM125.68,41.85c-.91.9-1.89,1.65-2.95,2.28l-.03.05c.13.1.24.21.38.26l.77-.22c1.11-.42,2.2-.91,3.13-1.65-.42-.27-.85-.53-1.3-.71ZM131.16,30.21c-.42-.53-1.06-.63-1.7-.63-.63.03-1.3.21-1.55.85-.32,1.04-.22,2.23-.18,3.35.05.58.11,1.19.64,1.55.61.34,1.51.43,2.18.13.42-.14.67-.56.77-.96.16-.95.1-2.07.11-2.98-.03-.45-.02-.95-.27-1.31ZM131.16,30.21c-.42-.53-1.06-.63-1.7-.63-.63.03-1.3.21-1.55.85-.32,1.04-.22,2.23-.18,3.35.05.58.11,1.19.64,1.55.61.34,1.51.43,2.18.13.42-.14.67-.56.77-.96.16-.95.1-2.07.11-2.98-.03-.45-.02-.95-.27-1.31ZM125.68,41.85c-.91.9-1.89,1.65-2.95,2.28l-.03.05c.13.1.24.21.38.26l.77-.22c1.11-.42,2.2-.91,3.13-1.65-.42-.27-.85-.53-1.3-.71ZM123.15,40.92l-.05.03c-.46.87-.99,1.68-1.62,2.48l-.03.11.72.32c.4-.19.77-.45,1.15-.67.66-.43,1.33-.98,1.86-1.57-.63-.32-1.31-.54-2.04-.71ZM122.62,40.78c-.9-.21-1.84-.3-2.79-.32-.06.96-.05,1.83-.02,2.81l.27.02c.29.02.56.13.85.1.64-.8,1.23-1.67,1.7-2.55l-.02-.05ZM116.86,44.48s-.16.08-.13.16c1.76.42,3.75.4,5.51.03.05-.03.16,0,.13-.11-1.54-1.07-3.94-1.07-5.51-.08ZM119.3,40.46c-.93,0-1.83.13-2.69.29l-.1.06c.48.9,1.04,1.78,1.73,2.58.34-.1.72-.1,1.07-.16l-.02-2.77ZM116.02,40.94l-.08-.02c-.71.18-1.38.4-2.04.72v.03c.88.91,1.94,1.67,3.05,2.21.22-.14.51-.21.75-.35-.61-.85-1.2-1.7-1.68-2.6ZM113.37,41.87c-.42.18-.82.45-1.22.69v.05c1.2.87,2.5,1.49,3.91,1.84.11-.06.26-.16.32-.27-1.07-.67-2.05-1.36-3.01-2.31ZM112.78,48.81c-.29,0-.46.13-.46.46v2.53c0,.32.18.46.46.46s.46-.14.46-.46v-2.53c0-.34-.18-.46-.46-.46ZM109.57,48.81c-.29,0-.46.13-.46.46v2.53c0,.32.18.46.46.46s.46-.14.46-.46v-2.53c0-.34-.18-.46-.46-.46ZM106.35,48.82c-.29,0-.46.11-.46.45v.83c0,.34.18.46.46.46s.46-.13.46-.46v-.83c0-.34-.18-.45-.46-.45ZM106.35,48.82c-.29,0-.46.11-.46.45v.83c0,.34.18.46.46.46s.46-.13.46-.46v-.83c0-.34-.18-.45-.46-.45ZM109.57,48.81c-.29,0-.46.13-.46.46v2.53c0,.32.18.46.46.46s.46-.14.46-.46v-2.53c0-.34-.18-.46-.46-.46ZM112.78,48.81c-.29,0-.46.13-.46.46v2.53c0,.32.18.46.46.46s.46-.14.46-.46v-2.53c0-.34-.18-.46-.46-.46ZM113.37,41.87c-.42.18-.82.45-1.22.69v.05c1.2.87,2.5,1.49,3.91,1.84.11-.06.26-.16.32-.27-1.07-.67-2.05-1.36-3.01-2.31ZM116.02,40.94l-.08-.02c-.71.18-1.38.4-2.04.72v.03c.88.91,1.94,1.67,3.05,2.21.22-.14.51-.21.75-.35-.61-.85-1.2-1.7-1.68-2.6ZM119.3,40.46c-.93,0-1.83.13-2.69.29l-.1.06c.48.9,1.04,1.78,1.73,2.58.34-.1.72-.1,1.07-.16l-.02-2.77ZM116.86,44.48s-.16.08-.13.16c1.76.42,3.75.4,5.51.03.05-.03.16,0,.13-.11-1.54-1.07-3.94-1.07-5.51-.08ZM122.62,40.78c-.9-.21-1.84-.3-2.79-.32-.06.96-.05,1.83-.02,2.81l.27.02c.29.02.56.13.85.1.64-.8,1.23-1.67,1.7-2.55l-.02-.05ZM123.15,40.92l-.05.03c-.46.87-.99,1.68-1.62,2.48l-.03.11.72.32c.4-.19.77-.45,1.15-.67.66-.43,1.33-.98,1.86-1.57-.63-.32-1.31-.54-2.04-.71ZM125.68,41.85c-.91.9-1.89,1.65-2.95,2.28l-.03.05c.13.1.24.21.38.26l.77-.22c1.11-.42,2.2-.91,3.13-1.65-.42-.27-.85-.53-1.3-.71ZM131.16,30.21c-.42-.53-1.06-.63-1.7-.63-.63.03-1.3.21-1.55.85-.32,1.04-.22,2.23-.18,3.35.05.58.11,1.19.64,1.55.61.34,1.51.43,2.18.13.42-.14.67-.56.77-.96.16-.95.1-2.07.11-2.98-.03-.45-.02-.95-.27-1.31ZM131.16,30.21c-.42-.53-1.06-.63-1.7-.63-.63.03-1.3.21-1.55.85-.32,1.04-.22,2.23-.18,3.35.05.58.11,1.19.64,1.55.61.34,1.51.43,2.18.13.42-.14.67-.56.77-.96.16-.95.1-2.07.11-2.98-.03-.45-.02-.95-.27-1.31ZM125.68,41.85c-.91.9-1.89,1.65-2.95,2.28l-.03.05c.13.1.24.21.38.26l.77-.22c1.11-.42,2.2-.91,3.13-1.65-.42-.27-.85-.53-1.3-.71ZM123.15,40.92l-.05.03c-.46.87-.99,1.68-1.62,2.48l-.03.11.72.32c.4-.19.77-.45,1.15-.67.66-.43,1.33-.98,1.86-1.57-.63-.32-1.31-.54-2.04-.71ZM122.62,40.78c-.9-.21-1.84-.3-2.79-.32-.06.96-.05,1.83-.02,2.81l.27.02c.29.02.56.13.85.1.64-.8,1.23-1.67,1.7-2.55l-.02-.05ZM116.86,44.48s-.16.08-.13.16c1.76.42,3.75.4,5.51.03.05-.03.16,0,.13-.11-1.54-1.07-3.94-1.07-5.51-.08ZM119.3,40.46c-.93,0-1.83.13-2.69.29l-.1.06c.48.9,1.04,1.78,1.73,2.58.34-.1.72-.1,1.07-.16l-.02-2.77ZM116.02,40.94l-.08-.02c-.71.18-1.38.4-2.04.72v.03c.88.91,1.94,1.67,3.05,2.21.22-.14.51-.21.75-.35-.61-.85-1.2-1.7-1.68-2.6ZM113.37,41.87c-.42.18-.82.45-1.22.69v.05c1.2.87,2.5,1.49,3.91,1.84.11-.06.26-.16.32-.27-1.07-.67-2.05-1.36-3.01-2.31ZM112.78,48.81c-.29,0-.46.13-.46.46v2.53c0,.32.18.46.46.46s.46-.14.46-.46v-2.53c0-.34-.18-.46-.46-.46ZM109.57,48.81c-.29,0-.46.13-.46.46v2.53c0,.32.18.46.46.46s.46-.14.46-.46v-2.53c0-.34-.18-.46-.46-.46ZM106.35,48.82c-.29,0-.46.11-.46.45v.83c0,.34.18.46.46.46s.46-.13.46-.46v-.83c0-.34-.18-.45-.46-.45ZM106.35,48.82c-.29,0-.46.11-.46.45v.83c0,.34.18.46.46.46s.46-.13.46-.46v-.83c0-.34-.18-.45-.46-.45ZM109.57,48.81c-.29,0-.46.13-.46.46v2.53c0,.32.18.46.46.46s.46-.14.46-.46v-2.53c0-.34-.18-.46-.46-.46ZM112.78,48.81c-.29,0-.46.13-.46.46v2.53c0,.32.18.46.46.46s.46-.14.46-.46v-2.53c0-.34-.18-.46-.46-.46ZM113.37,41.87c-.42.18-.82.45-1.22.69v.05c1.2.87,2.5,1.49,3.91,1.84.11-.06.26-.16.32-.27-1.07-.67-2.05-1.36-3.01-2.31ZM116.02,40.94l-.08-.02c-.71.18-1.38.4-2.04.72v.03c.88.91,1.94,1.67,3.05,2.21.22-.14.51-.21.75-.35-.61-.85-1.2-1.7-1.68-2.6ZM119.3,40.46c-.93,0-1.83.13-2.69.29l-.1.06c.48.9,1.04,1.78,1.73,2.58.34-.1.72-.1,1.07-.16l-.02-2.77ZM116.86,44.48s-.16.08-.13.16c1.76.42,3.75.4,5.51.03.05-.03.16,0,.13-.11-1.54-1.07-3.94-1.07-5.51-.08ZM122.62,40.78c-.9-.21-1.84-.3-2.79-.32-.06.96-.05,1.83-.02,2.81l.27.02c.29.02.56.13.85.1.64-.8,1.23-1.67,1.7-2.55l-.02-.05ZM123.15,40.92l-.05.03c-.46.87-.99,1.68-1.62,2.48l-.03.11.72.32c.4-.19.77-.45,1.15-.67.66-.43,1.33-.98,1.86-1.57-.63-.32-1.31-.54-2.04-.71ZM123.9,48.81c-.29,0-.46.13-.46.46v2.53c0,.32.18.46.46.46s.46-.14.46-.46v-2.53c0-.34-.18-.46-.46-.46ZM125.68,41.85c-.91.9-1.89,1.65-2.95,2.28l-.03.05c.13.1.24.21.38.26l.77-.22c1.11-.42,2.2-.91,3.13-1.65-.42-.27-.85-.53-1.3-.71ZM131.16,30.21c-.42-.53-1.06-.63-1.7-.63-.63.03-1.3.21-1.55.85-.32,1.04-.22,2.23-.18,3.35.05.58.11,1.19.64,1.55.61.34,1.51.43,2.18.13.42-.14.67-.56.77-.96.16-.95.1-2.07.11-2.98-.03-.45-.02-.95-.27-1.31ZM131.16,30.21c-.42-.53-1.06-.63-1.7-.63-.63.03-1.3.21-1.55.85-.32,1.04-.22,2.23-.18,3.35.05.58.11,1.19.64,1.55.61.34,1.51.43,2.18.13.42-.14.67-.56.77-.96.16-.95.1-2.07.11-2.98-.03-.45-.02-.95-.27-1.31ZM123.9,48.81c-.29,0-.46.13-.46.46v2.53c0,.32.18.46.46.46s.46-.14.46-.46v-2.53c0-.34-.18-.46-.46-.46ZM125.68,41.85c-.91.9-1.89,1.65-2.95,2.28l-.03.05c.13.1.24.21.38.26l.77-.22c1.11-.42,2.2-.91,3.13-1.65-.42-.27-.85-.53-1.3-.71ZM121.45,43.55l.72.32c.4-.19.77-.45,1.15-.67.66-.43,1.33-.98,1.86-1.57-.63-.32-1.31-.54-2.04-.71l-.05.03c-.46.87-.99,1.68-1.62,2.48l-.03.11ZM120.09,43.28c.29.02.56.13.85.1.64-.8,1.23-1.67,1.7-2.55l-.02-.05c-.9-.21-1.84-.3-2.79-.32-.06.96-.05,1.83-.02,2.81l.27.02ZM116.86,44.48s-.16.08-.13.16c1.76.42,3.75.4,5.51.03.05-.03.16,0,.13-.11-1.54-1.07-3.94-1.07-5.51-.08ZM119.32,43.23l-.02-2.77c-.93,0-1.83.13-2.69.29l-.1.06c.48.9,1.04,1.78,1.73,2.58.34-.1.72-.1,1.07-.16ZM117.7,43.53c-.61-.85-1.2-1.7-1.68-2.6l-.08-.02c-.71.18-1.38.4-2.04.72v.03c.88.91,1.94,1.67,3.05,2.21.22-.14.51-.21.75-.35ZM112.15,42.56v.05c1.2.87,2.5,1.49,3.91,1.84.11-.06.26-.16.32-.27-1.07-.67-2.05-1.36-3.01-2.31-.42.18-.82.45-1.22.69ZM112.78,48.81c-.29,0-.46.13-.46.46v2.53c0,.32.18.46.46.46s.46-.14.46-.46v-2.53c0-.34-.18-.46-.46-.46ZM109.57,48.81c-.29,0-.46.13-.46.46v2.53c0,.32.18.46.46.46s.46-.14.46-.46v-2.53c0-.34-.18-.46-.46-.46ZM106.35,48.82c-.29,0-.46.11-.46.45v.83c0,.34.18.46.46.46s.46-.13.46-.46v-.83c0-.34-.18-.45-.46-.45ZM119.49,11.71c-13.31,0-24.09,10.79-24.09,24.09s10.79,24.09,24.09,24.09,24.09-10.79,24.09-24.09-10.79-24.09-24.09-24.09ZM118.44,19.76c.21-.02.43-.03.61-.02.48-.05,1.04-.03,1.49.02l.02.03.02-.03c3.99.32,7.69,2.47,9.94,5.82-.18.1-.35.02-.55.02-.72-1.04-1.62-1.99-2.65-2.74l-.16.05-1.17.69v.08c.29.3.51.58.74.88.27.32.53.67.72,1.04-.14.05-.32.03-.5.03-.43-.63-.91-1.27-1.44-1.8-.74.27-1.46.58-2.21.77l-.03.03.42.95c-.11.06-.32.03-.46.03l-.45-.85-.08-.02c-.93.22-1.94.32-2.92.37-.06.14,0,.34-.05.5h-.45c-.06-.16.05-.38-.1-.51-1.03-.03-2.05-.14-3.01-.35-.18.27-.29.58-.45.87-.18.02-.29.03-.48,0l.43-.95-.06-.06c-.74-.19-1.44-.46-2.16-.74-.53.54-.98,1.15-1.41,1.76-.16.03-.37.05-.5,0,.4-.69.93-1.33,1.44-1.97-.42-.27-.9-.5-1.33-.77-.46.27-.87.69-1.3,1.09-.5.53-.95,1.06-1.36,1.62-.18.08-.37,0-.54.03,2.29-3.49,5.99-5.55,10-5.87ZM119.2,34.97c-1.49-.5-3.05-.88-4.54-1.41-1.09-.4-2.23-1.27-2.45-2.45-.27-1.25.06-2.66,1.15-3.45,1.67-1.2,4.23-1.11,6.08-.35l.77.42c.08-.19.02-.48.05-.67.75-.03,1.68-.03,2.42-.02.02,1.35.06,2.53.03,3.88-.79.03-1.65.02-2.39.02-.69-1.07-1.88-1.46-3.05-1.62-.56-.02-1.3-.18-1.6.35-.05.19.03.32.18.43l.3.16,4.04,1.17c1.36.34,2.69,1.6,2.89,3,.18,1.43-.48,2.76-1.75,3.45-1.71.88-3.96.72-5.69,0-.29-.14-.58-.3-.87-.43l-.02.79-2.52.02c-.03-1.31-.03-2.84,0-4.17l2.26-.02c.13.18.21.37.34.53,1.14,1.19,2.84,1.51,4.41,1.07.13-.06.27-.14.27-.29.03-.19-.16-.34-.32-.4ZM104.15,35.53l1.65-.03.02-.22v-5.58c-.55-.05-1.07-.03-1.65-.05-.02-.88-.02-1.89,0-2.77l1.04-.02,6.3.02c.03.87.02,1.86.02,2.79l-1.65.02-.03.05-.02,5.76c.55.06,1.15.02,1.7.05v2.71h-7.37c-.03-.91-.03-1.8,0-2.71ZM106.33,52.94c-.87,0-1.33-.43-1.33-1.19v-.13h.83v.18c0,.32.18.46.46.46.32,0,.5-.14.5-.59v-.85h-.02c-.14.27-.42.4-.82.4-.66,0-.98-.38-.98-1.07v-.87c0-.74.48-1.17,1.35-1.17s1.35.43,1.35,1.17v2.42h.02c0,.8-.43,1.23-1.36,1.23ZM110.92,51.74c0,.75-.48,1.19-1.35,1.19s-1.35-.43-1.35-1.19v-2.45c0-.74.48-1.17,1.35-1.17s1.35.43,1.35,1.17v2.45ZM114.12,51.74c0,.75-.48,1.19-1.35,1.19s-1.35-.43-1.35-1.19v-2.45c0-.74.48-1.17,1.35-1.17s1.35.43,1.35,1.17v2.45ZM116.83,52.89h-.9v-3.61h-.69v-.51c.69,0,.85-.27.98-.59h.61v4.71ZM113.55,44s0-.03-.02-.03h-.02c-1.96-.96-3.83-2.6-5.02-4.47.21-.02.34-.03.53,0,.71,1.03,1.64,2.02,2.65,2.77.46-.21.91-.5,1.36-.77-.55-.66-1.06-1.3-1.47-2.02.19.03.51-.13.61.14.37.56.82,1.11,1.28,1.62l.06.03c.72-.3,1.46-.56,2.2-.77l.05-.05-.42-.98c.11-.05.3-.02.46-.02l.45.87c.98-.19,1.99-.3,3.01-.35.1-.18.02-.32.05-.51h.43c.06.13,0,.34.05.5.99.06,2.08.18,3.06.38l.46-.88h.45c-.08.34-.29.64-.42.98l.1.06c.75.19,1.43.45,2.16.74.55-.53.98-1.17,1.41-1.78h.51c-.4.72-.91,1.35-1.44,1.99.4.26.85.48,1.27.74.03.05.13.06.16.02.96-.77,1.84-1.72,2.55-2.73.18-.02.4-.02.54.02-2.84,4.3-7.74,6.49-12.86,5.82-1.49-.21-2.9-.66-4.22-1.31ZM118.77,52.88h-.85v-.72h.85v.72ZM118.77,50.33h-.85v-.72h.85v.72ZM122.01,52.22v.67h-2.6v-.59c0-.53.22-.93.9-1.51.67-.59.87-.98.87-1.48.02-.42-.16-.53-.45-.53s-.46.13-.46.46v.5h-.85v-.45c0-.74.45-1.17,1.35-1.17s1.33.43,1.33,1.17c0,.64-.27,1.14-1.09,1.86-.53.46-.67.69-.67.95v.11h1.68ZM125.25,51.74c0,.75-.48,1.19-1.35,1.19s-1.35-.43-1.35-1.19v-2.45c0-.74.48-1.17,1.35-1.17s1.35.43,1.35,1.17v2.45ZM127.96,52.89h-.9v-3.61h-.69v-.51c.69,0,.85-.27.98-.59h.61v4.71ZM131.66,51.76c0,.75-.46,1.19-1.35,1.19s-1.33-.43-1.33-1.19v-.38h.85v.43c0,.32.19.45.46.45.29,0,.46-.13.46-.45v-1.04c0-.32-.18-.46-.46-.46-.27,0-.46.14-.46.46v.14h-.83l.16-2.74h2.36v.67h-1.55l-.08,1.14h.02c.16-.22.42-.35.77-.35.66,0,.99.38.99,1.07v1.06ZM134.71,36.38c-.53.69-1.25,1.2-2,1.52l-.08.03c-.26.11-.61.22-.74.24-2.42.67-5.13.29-7.01-1.35-1.6-1.55-1.73-4.02-1.28-6.11.26-1.27,1.07-2.48,2.28-3.13,2.24-1.25,5.56-1.15,7.73.22.75.51,1.36,1.22,1.67,2.02.75,2.04.67,4.73-.56,6.54ZM129.46,29.59c-.63.03-1.3.21-1.55.85-.32,1.04-.22,2.23-.18,3.35.05.58.11,1.19.64,1.55.61.34,1.51.43,2.18.13.42-.14.67-.56.77-.96.16-.95.1-2.07.11-2.98-.03-.45-.02-.95-.27-1.31-.42-.53-1.06-.63-1.7-.63ZM122.7,44.17c.13.1.24.21.38.26l.77-.22c1.11-.42,2.2-.91,3.13-1.65-.42-.27-.85-.53-1.3-.71-.91.9-1.89,1.65-2.95,2.28l-.03.05ZM123.9,48.81c-.29,0-.46.13-.46.46v2.53c0,.32.18.46.46.46s.46-.14.46-.46v-2.53c0-.34-.18-.46-.46-.46ZM121.45,43.55l.72.32c.4-.19.77-.45,1.15-.67.66-.43,1.33-.98,1.86-1.57-.63-.32-1.31-.54-2.04-.71l-.05.03c-.46.87-.99,1.68-1.62,2.48l-.03.11ZM120.09,43.28c.29.02.56.13.85.1.64-.8,1.23-1.67,1.7-2.55l-.02-.05c-.9-.21-1.84-.3-2.79-.32-.06.96-.05,1.83-.02,2.81l.27.02ZM122.38,44.56c-1.54-1.07-3.94-1.07-5.51-.08-.03.05-.16.08-.13.16,1.76.42,3.75.4,5.51.03.05-.03.16,0,.13-.11ZM119.32,43.23l-.02-2.77c-.93,0-1.83.13-2.69.29l-.1.06c.48.9,1.04,1.78,1.73,2.58.34-.1.72-.1,1.07-.16ZM117.7,43.53c-.61-.85-1.2-1.7-1.68-2.6l-.08-.02c-.71.18-1.38.4-2.04.72v.03c.88.91,1.94,1.67,3.05,2.21.22-.14.51-.21.75-.35ZM112.15,42.56v.05c1.2.87,2.5,1.49,3.91,1.84.11-.06.26-.16.32-.27-1.07-.67-2.05-1.36-3.01-2.31-.42.18-.82.45-1.22.69ZM112.78,48.81c-.29,0-.46.13-.46.46v2.53c0,.32.18.46.46.46s.46-.14.46-.46v-2.53c0-.34-.18-.46-.46-.46ZM109.57,48.81c-.29,0-.46.13-.46.46v2.53c0,.32.18.46.46.46s.46-.14.46-.46v-2.53c0-.34-.18-.46-.46-.46ZM106.35,48.82c-.29,0-.46.11-.46.45v.83c0,.34.18.46.46.46s.46-.13.46-.46v-.83c0-.34-.18-.45-.46-.45ZM106.35,48.82c-.29,0-.46.11-.46.45v.83c0,.34.18.46.46.46s.46-.13.46-.46v-.83c0-.34-.18-.45-.46-.45ZM109.57,48.81c-.29,0-.46.13-.46.46v2.53c0,.32.18.46.46.46s.46-.14.46-.46v-2.53c0-.34-.18-.46-.46-.46ZM112.78,48.81c-.29,0-.46.13-.46.46v2.53c0,.32.18.46.46.46s.46-.14.46-.46v-2.53c0-.34-.18-.46-.46-.46ZM113.37,41.87c-.42.18-.82.45-1.22.69v.05c1.2.87,2.5,1.49,3.91,1.84.11-.06.26-.16.32-.27-1.07-.67-2.05-1.36-3.01-2.31ZM116.02,40.94l-.08-.02c-.71.18-1.38.4-2.04.72v.03c.88.91,1.94,1.67,3.05,2.21.22-.14.51-.21.75-.35-.61-.85-1.2-1.7-1.68-2.6ZM119.3,40.46c-.93,0-1.83.13-2.69.29l-.1.06c.48.9,1.04,1.78,1.73,2.58.34-.1.72-.1,1.07-.16l-.02-2.77ZM116.86,44.48s-.16.08-.13.16c1.76.42,3.75.4,5.51.03.05-.03.16,0,.13-.11-1.54-1.07-3.94-1.07-5.51-.08ZM122.62,40.78c-.9-.21-1.84-.3-2.79-.32-.06.96-.05,1.83-.02,2.81l.27.02c.29.02.56.13.85.1.64-.8,1.23-1.67,1.7-2.55l-.02-.05ZM123.15,40.92l-.05.03c-.46.87-.99,1.68-1.62,2.48l-.03.11.72.32c.4-.19.77-.45,1.15-.67.66-.43,1.33-.98,1.86-1.57-.63-.32-1.31-.54-2.04-.71ZM125.68,41.85c-.91.9-1.89,1.65-2.95,2.28l-.03.05c.13.1.24.21.38.26l.77-.22c1.11-.42,2.2-.91,3.13-1.65-.42-.27-.85-.53-1.3-.71ZM123.9,48.81c-.29,0-.46.13-.46.46v2.53c0,.32.18.46.46.46s.46-.14.46-.46v-2.53c0-.34-.18-.46-.46-.46ZM131.16,30.21c-.42-.53-1.06-.63-1.7-.63-.63.03-1.3.21-1.55.85-.32,1.04-.22,2.23-.18,3.35.05.58.11,1.19.64,1.55.61.34,1.51.43,2.18.13.42-.14.67-.56.77-.96.16-.95.1-2.07.11-2.98-.03-.45-.02-.95-.27-1.31ZM131.16,30.21c-.42-.53-1.06-.63-1.7-.63-.63.03-1.3.21-1.55.85-.32,1.04-.22,2.23-.18,3.35.05.58.11,1.19.64,1.55.61.34,1.51.43,2.18.13.42-.14.67-.56.77-.96.16-.95.1-2.07.11-2.98-.03-.45-.02-.95-.27-1.31ZM125.68,41.85c-.91.9-1.89,1.65-2.95,2.28l-.03.05c.13.1.24.21.38.26l.77-.22c1.11-.42,2.2-.91,3.13-1.65-.42-.27-.85-.53-1.3-.71ZM123.9,48.81c-.29,0-.46.13-.46.46v2.53c0,.32.18.46.46.46s.46-.14.46-.46v-2.53c0-.34-.18-.46-.46-.46ZM123.15,40.92l-.05.03c-.46.87-.99,1.68-1.62,2.48l-.03.11.72.32c.4-.19.77-.45,1.15-.67.66-.43,1.33-.98,1.86-1.57-.63-.32-1.31-.54-2.04-.71ZM122.62,40.78c-.9-.21-1.84-.3-2.79-.32-.06.96-.05,1.83-.02,2.81l.27.02c.29.02.56.13.85.1.64-.8,1.23-1.67,1.7-2.55l-.02-.05ZM116.86,44.48s-.16.08-.13.16c1.76.42,3.75.4,5.51.03.05-.03.16,0,.13-.11-1.54-1.07-3.94-1.07-5.51-.08ZM119.3,40.46c-.93,0-1.83.13-2.69.29l-.1.06c.48.9,1.04,1.78,1.73,2.58.34-.1.72-.1,1.07-.16l-.02-2.77ZM116.02,40.94l-.08-.02c-.71.18-1.38.4-2.04.72v.03c.88.91,1.94,1.67,3.05,2.21.22-.14.51-.21.75-.35-.61-.85-1.2-1.7-1.68-2.6ZM113.37,41.87c-.42.18-.82.45-1.22.69v.05c1.2.87,2.5,1.49,3.91,1.84.11-.06.26-.16.32-.27-1.07-.67-2.05-1.36-3.01-2.31ZM112.78,48.81c-.29,0-.46.13-.46.46v2.53c0,.32.18.46.46.46s.46-.14.46-.46v-2.53c0-.34-.18-.46-.46-.46ZM109.57,48.81c-.29,0-.46.13-.46.46v2.53c0,.32.18.46.46.46s.46-.14.46-.46v-2.53c0-.34-.18-.46-.46-.46ZM106.35,48.82c-.29,0-.46.11-.46.45v.83c0,.34.18.46.46.46s.46-.13.46-.46v-.83c0-.34-.18-.45-.46-.45ZM106.35,48.82c-.29,0-.46.11-.46.45v.83c0,.34.18.46.46.46s.46-.13.46-.46v-.83c0-.34-.18-.45-.46-.45ZM109.57,48.81c-.29,0-.46.13-.46.46v2.53c0,.32.18.46.46.46s.46-.14.46-.46v-2.53c0-.34-.18-.46-.46-.46ZM112.78,48.81c-.29,0-.46.13-.46.46v2.53c0,.32.18.46.46.46s.46-.14.46-.46v-2.53c0-.34-.18-.46-.46-.46ZM113.37,41.87c-.42.18-.82.45-1.22.69v.05c1.2.87,2.5,1.49,3.91,1.84.11-.06.26-.16.32-.27-1.07-.67-2.05-1.36-3.01-2.31ZM116.02,40.94l-.08-.02c-.71.18-1.38.4-2.04.72v.03c.88.91,1.94,1.67,3.05,2.21.22-.14.51-.21.75-.35-.61-.85-1.2-1.7-1.68-2.6ZM119.3,40.46c-.93,0-1.83.13-2.69.29l-.1.06c.48.9,1.04,1.78,1.73,2.58.34-.1.72-.1,1.07-.16l-.02-2.77ZM116.86,44.48s-.16.08-.13.16c1.76.42,3.75.4,5.51.03.05-.03.16,0,.13-.11-1.54-1.07-3.94-1.07-5.51-.08ZM122.62,40.78c-.9-.21-1.84-.3-2.79-.32-.06.96-.05,1.83-.02,2.81l.27.02c.29.02.56.13.85.1.64-.8,1.23-1.67,1.7-2.55l-.02-.05ZM123.15,40.92l-.05.03c-.46.87-.99,1.68-1.62,2.48l-.03.11.72.32c.4-.19.77-.45,1.15-.67.66-.43,1.33-.98,1.86-1.57-.63-.32-1.31-.54-2.04-.71ZM125.68,41.85c-.91.9-1.89,1.65-2.95,2.28l-.03.05c.13.1.24.21.38.26l.77-.22c1.11-.42,2.2-.91,3.13-1.65-.42-.27-.85-.53-1.3-.71ZM131.16,30.21c-.42-.53-1.06-.63-1.7-.63-.63.03-1.3.21-1.55.85-.32,1.04-.22,2.23-.18,3.35.05.58.11,1.19.64,1.55.61.34,1.51.43,2.18.13.42-.14.67-.56.77-.96.16-.95.1-2.07.11-2.98-.03-.45-.02-.95-.27-1.31ZM131.16,30.21c-.42-.53-1.06-.63-1.7-.63-.63.03-1.3.21-1.55.85-.32,1.04-.22,2.23-.18,3.35.05.58.11,1.19.64,1.55.61.34,1.51.43,2.18.13.42-.14.67-.56.77-.96.16-.95.1-2.07.11-2.98-.03-.45-.02-.95-.27-1.31ZM125.68,41.85c-.91.9-1.89,1.65-2.95,2.28l-.03.05c.13.1.24.21.38.26l.77-.22c1.11-.42,2.2-.91,3.13-1.65-.42-.27-.85-.53-1.3-.71ZM123.15,40.92l-.05.03c-.46.87-.99,1.68-1.62,2.48l-.03.11.72.32c.4-.19.77-.45,1.15-.67.66-.43,1.33-.98,1.86-1.57-.63-.32-1.31-.54-2.04-.71ZM122.62,40.78c-.9-.21-1.84-.3-2.79-.32-.06.96-.05,1.83-.02,2.81l.27.02c.29.02.56.13.85.1.64-.8,1.23-1.67,1.7-2.55l-.02-.05ZM116.86,44.48s-.16.08-.13.16c1.76.42,3.75.4,5.51.03.05-.03.16,0,.13-.11-1.54-1.07-3.94-1.07-5.51-.08ZM119.3,40.46c-.93,0-1.83.13-2.69.29l-.1.06c.48.9,1.04,1.78,1.73,2.58.34-.1.72-.1,1.07-.16l-.02-2.77ZM116.02,40.94l-.08-.02c-.71.18-1.38.4-2.04.72v.03c.88.91,1.94,1.67,3.05,2.21.22-.14.51-.21.75-.35-.61-.85-1.2-1.7-1.68-2.6ZM113.37,41.87c-.42.18-.82.45-1.22.69v.05c1.2.87,2.5,1.49,3.91,1.84.11-.06.26-.16.32-.27-1.07-.67-2.05-1.36-3.01-2.31ZM112.78,48.81c-.29,0-.46.13-.46.46v2.53c0,.32.18.46.46.46s.46-.14.46-.46v-2.53c0-.34-.18-.46-.46-.46ZM109.57,48.81c-.29,0-.46.13-.46.46v2.53c0,.32.18.46.46.46s.46-.14.46-.46v-2.53c0-.34-.18-.46-.46-.46ZM106.35,48.82c-.29,0-.46.11-.46.45v.83c0,.34.18.46.46.46s.46-.13.46-.46v-.83c0-.34-.18-.45-.46-.45ZM106.35,48.82c-.29,0-.46.11-.46.45v.83c0,.34.18.46.46.46s.46-.13.46-.46v-.83c0-.34-.18-.45-.46-.45ZM109.57,48.81c-.29,0-.46.13-.46.46v2.53c0,.32.18.46.46.46s.46-.14.46-.46v-2.53c0-.34-.18-.46-.46-.46ZM112.78,48.81c-.29,0-.46.13-.46.46v2.53c0,.32.18.46.46.46s.46-.14.46-.46v-2.53c0-.34-.18-.46-.46-.46ZM113.37,41.87c-.42.18-.82.45-1.22.69v.05c1.2.87,2.5,1.49,3.91,1.84.11-.06.26-.16.32-.27-1.07-.67-2.05-1.36-3.01-2.31ZM116.02,40.94l-.08-.02c-.71.18-1.38.4-2.04.72v.03c.88.91,1.94,1.67,3.05,2.21.22-.14.51-.21.75-.35-.61-.85-1.2-1.7-1.68-2.6ZM119.3,40.46c-.93,0-1.83.13-2.69.29l-.1.06c.48.9,1.04,1.78,1.73,2.58.34-.1.72-.1,1.07-.16l-.02-2.77ZM116.86,44.48s-.16.08-.13.16c1.76.42,3.75.4,5.51.03.05-.03.16,0,.13-.11-1.54-1.07-3.94-1.07-5.51-.08ZM122.62,40.78c-.9-.21-1.84-.3-2.79-.32-.06.96-.05,1.83-.02,2.81l.27.02c.29.02.56.13.85.1.64-.8,1.23-1.67,1.7-2.55l-.02-.05ZM123.15,40.92l-.05.03c-.46.87-.99,1.68-1.62,2.48l-.03.11.72.32c.4-.19.77-.45,1.15-.67.66-.43,1.33-.98,1.86-1.57-.63-.32-1.31-.54-2.04-.71ZM125.68,41.85c-.91.9-1.89,1.65-2.95,2.28l-.03.05c.13.1.24.21.38.26l.77-.22c1.11-.42,2.2-.91,3.13-1.65-.42-.27-.85-.53-1.3-.71ZM131.16,30.21c-.42-.53-1.06-.63-1.7-.63-.63.03-1.3.21-1.55.85-.32,1.04-.22,2.23-.18,3.35.05.58.11,1.19.64,1.55.61.34,1.51.43,2.18.13.42-.14.67-.56.77-.96.16-.95.1-2.07.11-2.98-.03-.45-.02-.95-.27-1.31ZM131.16,30.21c-.42-.53-1.06-.63-1.7-.63-.63.03-1.3.21-1.55.85-.32,1.04-.22,2.23-.18,3.35.05.58.11,1.19.64,1.55.61.34,1.51.43,2.18.13.42-.14.67-.56.77-.96.16-.95.1-2.07.11-2.98-.03-.45-.02-.95-.27-1.31ZM125.68,41.85c-.91.9-1.89,1.65-2.95,2.28l-.03.05c.13.1.24.21.38.26l.77-.22c1.11-.42,2.2-.91,3.13-1.65-.42-.27-.85-.53-1.3-.71ZM123.15,40.92l-.05.03c-.46.87-.99,1.68-1.62,2.48l-.03.11.72.32c.4-.19.77-.45,1.15-.67.66-.43,1.33-.98,1.86-1.57-.63-.32-1.31-.54-2.04-.71ZM122.62,40.78c-.9-.21-1.84-.3-2.79-.32-.06.96-.05,1.83-.02,2.81l.27.02c.29.02.56.13.85.1.64-.8,1.23-1.67,1.7-2.55l-.02-.05ZM116.86,44.48s-.16.08-.13.16c1.76.42,3.75.4,5.51.03.05-.03.16,0,.13-.11-1.54-1.07-3.94-1.07-5.51-.08ZM119.3,40.46c-.93,0-1.83.13-2.69.29l-.1.06c.48.9,1.04,1.78,1.73,2.58.34-.1.72-.1,1.07-.16l-.02-2.77ZM116.02,40.94l-.08-.02c-.71.18-1.38.4-2.04.72v.03c.88.91,1.94,1.67,3.05,2.21.22-.14.51-.21.75-.35-.61-.85-1.2-1.7-1.68-2.6ZM113.37,41.87c-.42.18-.82.45-1.22.69v.05c1.2.87,2.5,1.49,3.91,1.84.11-.06.26-.16.32-.27-1.07-.67-2.05-1.36-3.01-2.31ZM112.78,48.81c-.29,0-.46.13-.46.46v2.53c0,.32.18.46.46.46s.46-.14.46-.46v-2.53c0-.34-.18-.46-.46-.46ZM109.57,48.81c-.29,0-.46.13-.46.46v2.53c0,.32.18.46.46.46s.46-.14.46-.46v-2.53c0-.34-.18-.46-.46-.46ZM106.35,48.82c-.29,0-.46.11-.46.45v.83c0,.34.18.46.46.46s.46-.13.46-.46v-.83c0-.34-.18-.45-.46-.45ZM106.35,48.82c-.29,0-.46.11-.46.45v.83c0,.34.18.46.46.46s.46-.13.46-.46v-.83c0-.34-.18-.45-.46-.45ZM109.57,48.81c-.29,0-.46.13-.46.46v2.53c0,.32.18.46.46.46s.46-.14.46-.46v-2.53c0-.34-.18-.46-.46-.46ZM113.37,41.87c-.42.18-.82.45-1.22.69v.05c1.2.87,2.5,1.49,3.91,1.84.11-.06.26-.16.32-.27-1.07-.67-2.05-1.36-3.01-2.31ZM116.02,40.94l-.08-.02c-.71.18-1.38.4-2.04.72v.03c.88.91,1.94,1.67,3.05,2.21.22-.14.51-.21.75-.35-.61-.85-1.2-1.7-1.68-2.6ZM119.3,40.46c-.93,0-1.83.13-2.69.29l-.1.06c.48.9,1.04,1.78,1.73,2.58.34-.1.72-.1,1.07-.16l-.02-2.77ZM116.86,44.48s-.16.08-.13.16c1.76.42,3.75.4,5.51.03.05-.03.16,0,.13-.11-1.54-1.07-3.94-1.07-5.51-.08ZM122.62,40.78c-.9-.21-1.84-.3-2.79-.32-.06.96-.05,1.83-.02,2.81l.27.02c.29.02.56.13.85.1.64-.8,1.23-1.67,1.7-2.55l-.02-.05ZM123.15,40.92l-.05.03c-.46.87-.99,1.68-1.62,2.48l-.03.11.72.32c.4-.19.77-.45,1.15-.67.66-.43,1.33-.98,1.86-1.57-.63-.32-1.31-.54-2.04-.71ZM125.68,41.85c-.91.9-1.89,1.65-2.95,2.28l-.03.05c.13.1.24.21.38.26l.77-.22c1.11-.42,2.2-.91,3.13-1.65-.42-.27-.85-.53-1.3-.71ZM131.16,30.21c-.42-.53-1.06-.63-1.7-.63-.63.03-1.3.21-1.55.85-.32,1.04-.22,2.23-.18,3.35.05.58.11,1.19.64,1.55.61.34,1.51.43,2.18.13.42-.14.67-.56.77-.96.16-.95.1-2.07.11-2.98-.03-.45-.02-.95-.27-1.31ZM131.16,30.21c-.42-.53-1.06-.63-1.7-.63-.63.03-1.3.21-1.55.85-.32,1.04-.22,2.23-.18,3.35.05.58.11,1.19.64,1.55.61.34,1.51.43,2.18.13.42-.14.67-.56.77-.96.16-.95.1-2.07.11-2.98-.03-.45-.02-.95-.27-1.31ZM125.68,41.85c-.91.9-1.89,1.65-2.95,2.28l-.03.05c.13.1.24.21.38.26l.77-.22c1.11-.42,2.2-.91,3.13-1.65-.42-.27-.85-.53-1.3-.71ZM123.15,40.92l-.05.03c-.46.87-.99,1.68-1.62,2.48l-.03.11.72.32c.4-.19.77-.45,1.15-.67.66-.43,1.33-.98,1.86-1.57-.63-.32-1.31-.54-2.04-.71ZM122.62,40.78c-.9-.21-1.84-.3-2.79-.32-.06.96-.05,1.83-.02,2.81l.27.02c.29.02.56.13.85.1.64-.8,1.23-1.67,1.7-2.55l-.02-.05ZM116.86,44.48s-.16.08-.13.16c1.76.42,3.75.4,5.51.03.05-.03.16,0,.13-.11-1.54-1.07-3.94-1.07-5.51-.08ZM119.3,40.46c-.93,0-1.83.13-2.69.29l-.1.06c.48.9,1.04,1.78,1.73,2.58.34-.1.72-.1,1.07-.16l-.02-2.77ZM116.02,40.94l-.08-.02c-.71.18-1.38.4-2.04.72v.03c.88.91,1.94,1.67,3.05,2.21.22-.14.51-.21.75-.35-.61-.85-1.2-1.7-1.68-2.6ZM113.37,41.87c-.42.18-.82.45-1.22.69v.05c1.2.87,2.5,1.49,3.91,1.84.11-.06.26-.16.32-.27-1.07-.67-2.05-1.36-3.01-2.31ZM109.57,48.81c-.29,0-.46.13-.46.46v2.53c0,.32.18.46.46.46s.46-.14.46-.46v-2.53c0-.34-.18-.46-.46-.46ZM106.35,48.82c-.29,0-.46.11-.46.45v.83c0,.34.18.46.46.46s.46-.13.46-.46v-.83c0-.34-.18-.45-.46-.45ZM113.37,41.87c-.42.18-.82.45-1.22.69v.05c1.2.87,2.5,1.49,3.91,1.84.11-.06.26-.16.32-.27-1.07-.67-2.05-1.36-3.01-2.31ZM116.02,40.94l-.08-.02c-.71.18-1.38.4-2.04.72v.03c.88.91,1.94,1.67,3.05,2.21.22-.14.51-.21.75-.35-.61-.85-1.2-1.7-1.68-2.6ZM119.3,40.46c-.93,0-1.83.13-2.69.29l-.1.06c.48.9,1.04,1.78,1.73,2.58.34-.1.72-.1,1.07-.16l-.02-2.77ZM116.86,44.48s-.16.08-.13.16c1.76.42,3.75.4,5.51.03.05-.03.16,0,.13-.11-1.54-1.07-3.94-1.07-5.51-.08ZM122.62,40.78c-.9-.21-1.84-.3-2.79-.32-.06.96-.05,1.83-.02,2.81l.27.02c.29.02.56.13.85.1.64-.8,1.23-1.67,1.7-2.55l-.02-.05ZM123.15,40.92l-.05.03c-.46.87-.99,1.68-1.62,2.48l-.03.11.72.32c.4-.19.77-.45,1.15-.67.66-.43,1.33-.98,1.86-1.57-.63-.32-1.31-.54-2.04-.71ZM125.68,41.85c-.91.9-1.89,1.65-2.95,2.28l-.03.05c.13.1.24.21.38.26l.77-.22c1.11-.42,2.2-.91,3.13-1.65-.42-.27-.85-.53-1.3-.71ZM131.16,30.21c-.42-.53-1.06-.63-1.7-.63-.63.03-1.3.21-1.55.85-.32,1.04-.22,2.23-.18,3.35.05.58.11,1.19.64,1.55.61.34,1.51.43,2.18.13.42-.14.67-.56.77-.96.16-.95.1-2.07.11-2.98-.03-.45-.02-.95-.27-1.31ZM131.16,30.21c-.42-.53-1.06-.63-1.7-.63-.63.03-1.3.21-1.55.85-.32,1.04-.22,2.23-.18,3.35.05.58.11,1.19.64,1.55.61.34,1.51.43,2.18.13.42-.14.67-.56.77-.96.16-.95.1-2.07.11-2.98-.03-.45-.02-.95-.27-1.31ZM125.68,41.85c-.91.9-1.89,1.65-2.95,2.28l-.03.05c.13.1.24.21.38.26l.77-.22c1.11-.42,2.2-.91,3.13-1.65-.42-.27-.85-.53-1.3-.71ZM123.15,40.92l-.05.03c-.46.87-.99,1.68-1.62,2.48l-.03.11.72.32c.4-.19.77-.45,1.15-.67.66-.43,1.33-.98,1.86-1.57-.63-.32-1.31-.54-2.04-.71ZM122.62,40.78c-.9-.21-1.84-.3-2.79-.32-.06.96-.05,1.83-.02,2.81l.27.02c.29.02.56.13.85.1.64-.8,1.23-1.67,1.7-2.55l-.02-.05ZM116.86,44.48s-.16.08-.13.16c1.76.42,3.75.4,5.51.03.05-.03.16,0,.13-.11-1.54-1.07-3.94-1.07-5.51-.08ZM119.3,40.46c-.93,0-1.83.13-2.69.29l-.1.06c.48.9,1.04,1.78,1.73,2.58.34-.1.72-.1,1.07-.16l-.02-2.77ZM116.02,40.94l-.08-.02c-.71.18-1.38.4-2.04.72v.03c.88.91,1.94,1.67,3.05,2.21.22-.14.51-.21.75-.35-.61-.85-1.2-1.7-1.68-2.6ZM113.37,41.87c-.42.18-.82.45-1.22.69v.05c1.2.87,2.5,1.49,3.91,1.84.11-.06.26-.16.32-.27-1.07-.67-2.05-1.36-3.01-2.31ZM131.16,30.21c-.42-.53-1.06-.63-1.7-.63-.63.03-1.3.21-1.55.85-.32,1.04-.22,2.23-.18,3.35.05.58.11,1.19.64,1.55.61.34,1.51.43,2.18.13.42-.14.67-.56.77-.96.16-.95.1-2.07.11-2.98-.03-.45-.02-.95-.27-1.31ZM131.16,30.21c-.42-.53-1.06-.63-1.7-.63-.63.03-1.3.21-1.55.85-.32,1.04-.22,2.23-.18,3.35.05.58.11,1.19.64,1.55.61.34,1.51.43,2.18.13.42-.14.67-.56.77-.96.16-.95.1-2.07.11-2.98-.03-.45-.02-.95-.27-1.31Z"/>
          <g>
            <path class="cls-1" d="M100.92,14.23l.64.64c.78.78.75,1.69-.16,2.59-.91.9-1.83.91-2.59.13l-2.52-2.55c-.78-.78-.75-1.69.16-2.59.91-.9,1.83-.91,2.59-.13l.46.48-.87.87-.52-.52c-.34-.34-.66-.3-.96,0-.3.28-.34.61,0,.96l2.61,2.64c.34.34.66.28.94,0,.3-.28.36-.6.01-.94l-.69-.7.88-.87Z"/>
            <path class="cls-1" d="M103.45,10.66l1.51-.94.52.84-1.51.94,1.06,1.71,1.92-1.18.52.84-3.03,1.87-3.63-5.85,3.03-1.87.52.84-1.92,1.18.99,1.62Z"/>
            <path class="cls-1" d="M112,11.05c-.12-.15-.21-.22-.39-.76l-.34-1.02c-.21-.6-.52-.75-1.09-.55l-.42.15.9,2.65-1.23.42-2.2-6.52,1.86-.64c1.27-.43,1.99-.12,2.34.88l.18.51c.22.67.12,1.18-.36,1.59h0c.69.01,1.05.43,1.29,1.11l.34,1c.1.31.19.54.4.75l-1.27.43ZM108.76,5.92l.67,2.01.48-.16c.46-.15.69-.42.51-.94l-.21-.64c-.15-.46-.42-.6-.85-.46l-.6.21Z"/>
            <path class="cls-1" d="M114.25,3.44l4-.39.09.97-1.35.13.58,5.88-1.3.13-.58-5.88-1.35.13-.09-.99Z"/>
            <path class="cls-1" d="M121.64,3.15l1.3.1-.58,6.85-1.3-.1.58-6.85Z"/>
            <path class="cls-1" d="M127.11,7.12l1.62.45-.25.94-1.62-.45-.75,2.74-1.26-.34,1.81-6.64,3.33.91-.25.94-2.07-.57-.55,2.01Z"/>
            <path class="cls-1" d="M133.17,6.06l1.17.57-3,6.19-1.17-.57,3-6.19Z"/>
            <path class="cls-1" d="M136.95,11.61l1.44,1.06-.58.79-1.44-1.06-1.2,1.62,1.81,1.35-.58.79-2.85-2.11,4.11-5.53,2.85,2.11-.58.79-1.81-1.35-1.15,1.53Z"/>
            <path class="cls-1" d="M143.21,13.17l1.33,1.57c.84.99.79,1.87-.04,2.58l-2.65,2.25c-.84.72-1.71.61-2.55-.39l-1.33-1.57,5.25-4.44ZM143.3,14.8l-3.75,3.18.48.55c.27.31.57.39.94.07l2.73-2.31c.37-.31.34-.63.07-.94l-.48-.55Z"/>
          </g>
          <g>
            <path class="cls-1" d="M99.57,58.4l-.73.63c-.88.75-1.83.66-2.71-.36-.88-1.02-.84-1.98.04-2.74l2.85-2.46c.88-.75,1.83-.66,2.71.36s.84,1.98-.04,2.74l-.54.46-.84-.99.58-.51c.39-.34.36-.67.07-1s-.61-.4-1-.07l-2.97,2.55c-.39.34-.36.66-.07,1,.28.33.6.42,1,.07l.78-.67.87.99Z"/>
            <path class="cls-1" d="M103.78,58.41c.64-.96,1.62-1.11,2.74-.36,1.12.75,1.36,1.71.72,2.67l-2.07,3.13c-.64.96-1.62,1.11-2.74.36s-1.36-1.71-.72-2.67l2.07-3.13ZM102.81,62.37c-.28.43-.16.75.19.99.36.24.7.22.99-.19l2.16-3.25c.28-.43.16-.75-.19-.99-.36-.24-.7-.22-.99.19l-2.16,3.25Z"/>
            <path class="cls-1" d="M111.83,66.15h.03l2.26-4.71,1.84.51-1.95,6.99-1.24-.34,1.39-5.01h-.03l-2.29,4.75-1.24-.34.4-5.2h-.03l-1.36,4.93-1.15-.31,1.93-6.97,1.84.51-.4,5.2Z"/>
            <path class="cls-1" d="M122.67,63.73l.03.94c.04,1.15-.6,1.81-1.98,1.86l-.64.03.1,2.71-1.36.04-.27-7.24,2.02-.07c1.35-.04,2.05.57,2.1,1.72ZM119.94,63.07l.09,2.44.64-.03c.43-.01.66-.19.64-.7l-.04-1.08c-.01-.51-.25-.67-.7-.66l-.63.03Z"/>
            <path class="cls-1" d="M131.05,67.14l-1.32.42-.61-1.18-1.6.51.16,1.32-1.2.37-.84-7.33,1.92-.6,3.49,6.49ZM127.38,65.89l1.26-.4-1.72-3.3h-.03l.49,3.7Z"/>
            <path class="cls-1" d="M133.02,60.18h-.01s2.94,4.36,2.94,4.36l-1.02.69-4.06-6,1.42-.96,3.57,2.82h.01s-2.43-3.61-2.43-3.61l1.02-.69,4.06,6-1.17.79-4.33-3.4Z"/>
            <path class="cls-1" d="M140.9,57.15l-4.83-1.75.91-1.11,3.19,1.32h.01s-1.87-2.92-1.87-2.92l.84-1,2.61,4.42,1.84,1.53-.87,1.05-1.84-1.53Z"/>
          </g>
        </g>
        <g>
          <g>
            <path class="cls-1" d="M65.26,30.96c-.53-1.4-1.63-2.66-2.97-3.56-3.86-2.45-9.73-2.62-13.7-.41-2.17,1.11-3.59,3.29-4.03,5.54-.8,3.7-.6,8.1,2.25,10.87,3.32,2.91,8.16,3.56,12.46,2.36.2-.04.85-.2,1.3-.44l.13-.05c1.33-.56,2.61-1.46,3.56-2.68,2.2-3.21,2.35-8.02,1.01-11.63ZM58.26,39.27c-.15.7-.62,1.43-1.37,1.69-1.19.52-2.79.38-3.88-.23-.92-.64-1.04-1.72-1.16-2.74-.09-2.01-.23-4.14.33-5.98.44-1.14,1.66-1.43,2.76-1.52,1.16,0,2.28.18,3,1.11.44.67.42,1.54.5,2.33-.03,1.66.12,3.64-.18,5.33Z"/>
            <path class="cls-1" d="M23.1,41.08c-.98-.06-2.08.03-3.02-.09l.03-10.23.06-.09,2.94-.03c.03-1.66.06-3.44-.03-4.96l-11.18-.03-1.84.03c-.03,1.54-.03,3.35,0,4.93,1.01.03,1.96,0,2.94.09v9.91l-.03.41-2.94.06c-.06,1.63-.06,3.21,0,4.81h13.08v-4.81Z"/>
            <path class="cls-1" d="M56.03,48.07c-1.24,1.78-2.82,3.5-4.54,4.84-.06.09-.24.06-.3-.03-.74-.47-1.54-.84-2.26-1.31.95-1.14,1.87-2.27,2.58-3.53h-.92c-.74,1.08-1.51,2.22-2.49,3.18-1.31-.52-2.49-.99-3.83-1.34l-.15-.11c.21-.59.59-1.14.71-1.73h-.8l-.8,1.58c-1.75-.38-3.68-.58-5.46-.7-.09-.26.03-.64-.09-.88h-.77c-.06.35.09.62-.09.91-1.84.08-3.62.29-5.34.64l-.8-1.55c-.29,0-.62-.06-.83.03l.74,1.72-.09.09c-1.34.38-2.64.85-3.92,1.37l-.12-.06c-.83-.9-1.63-1.89-2.29-2.88-.15-.5-.74-.21-1.07-.27.71,1.28,1.66,2.42,2.61,3.59-.8.47-1.6.99-2.43,1.37-1.78-1.34-3.44-3.09-4.69-4.93-.36-.06-.59-.03-.95,0,2.14,3.32,5.46,6.24,8.93,7.96,0,0,0-.03.03-.03.03,0,.09.05.03.09,2.35,1.14,4.84,1.95,7.48,2.3,9.11,1.19,17.8-2.68,22.84-10.32-.26-.03-.65-.03-.95,0ZM43.66,50.7l.09-.06c1.28.29,2.49.7,3.62,1.25-.95,1.08-2.17,2.01-3.29,2.8-.68.41-1.37.85-2.08,1.2l-1.27-.55.09-.2c1.07-1.43,2.02-2.89,2.85-4.43ZM37.82,49.82c1.69.03,3.38.21,4.95.58l.03.09c-.83,1.57-1.87,3.09-3,4.52-.51.06-.98-.14-1.48-.17l-.51-.06c-.06-1.72-.09-3.24,0-4.96ZM32.09,50.34c1.54-.29,3.14-.52,4.8-.52l.03,4.93c-.62.14-1.31.14-1.9.29-1.22-1.43-2.22-2.98-3.08-4.58l.15-.12ZM27.32,51.92c1.16-.56,2.37-.97,3.62-1.28l.12.03c.86,1.6,1.93,3.12,2.99,4.63-.41.23-.92.38-1.33.61-1.96-.96-3.83-2.3-5.4-3.91v-.09ZM31.14,56.9c-2.49-.64-4.81-1.75-6.94-3.27v-.09c.71-.43,1.43-.9,2.2-1.22,1.69,1.67,3.44,2.92,5.34,4.11-.15.18-.39.35-.59.47ZM42.15,57.28c-3.14.67-6.65.7-9.79-.06-.06-.14.15-.18.24-.26,2.76-1.78,7.06-1.78,9.76.14.09.18-.15.12-.21.18ZM45,56.47l-1.39.44c-.24-.12-.44-.29-.65-.47l.06-.09c1.9-1.11,3.62-2.45,5.25-4.05.8.32,1.57.76,2.29,1.25-1.66,1.32-3.59,2.19-5.55,2.92Z"/>
            <path class="cls-1" d="M18.56,23.44c.71-.99,1.51-1.95,2.4-2.89.77-.73,1.48-1.43,2.31-1.96.77.5,1.63.91,2.37,1.37-.92,1.13-1.87,2.27-2.55,3.49.21.09.59.06.89,0,.74-1.08,1.54-2.16,2.49-3.12,1.27.47,2.52.96,3.83,1.31l.12.12-.74,1.69c.33.06.53.03.86,0,.27-.49.47-1.05.77-1.54,1.72.38,3.53.58,5.37.64.24.21.06.64.15.9h.8c.09-.29-.03-.61.09-.87,1.72-.09,3.53-.27,5.2-.67l.14.03.8,1.51c.27,0,.62.06.83-.06l-.74-1.69.06-.06c1.36-.35,2.64-.88,3.94-1.4.92.96,1.78,2.1,2.55,3.2.33,0,.65.03.89-.06-.36-.64-.8-1.28-1.28-1.84-.39-.55-.8-1.05-1.31-1.57v-.15l2.08-1.19.3-.12c1.81,1.37,3.41,3.03,4.69,4.87.36,0,.65.12.95-.03-3.98-5.95-10.53-9.77-17.62-10.32l-.03.06-.06-.06c-.8-.09-1.78-.12-2.64-.03-.33-.03-.71,0-1.1.03-7.12.55-13.67,4.2-17.77,10.4.3-.03.65.09.95-.03ZM30.88,20.87l-.12.03c-1.22-.32-2.4-.7-3.53-1.19l.06-.18c1.63-1.54,3.35-2.83,5.25-3.82.45.18.89.32,1.34.53l-.09.23c-1.13,1.4-2.02,2.92-2.91,4.41ZM36.78,21.66c-.83.12-1.57-.03-2.4-.09-.8-.12-1.81-.2-2.61-.47.86-1.6,1.87-3.14,3.09-4.57l1.9.26c.09,1.51.03,3.26.03,4.87ZM37.7,21.69c-.06-1.55-.03-3.27,0-4.87.59-.09,1.24-.18,1.84-.26,1.16,1.45,2.29,2.95,3.06,4.54-1.6.38-3.24.59-4.9.59ZM47.16,19.65c-1.16.49-2.35.96-3.62,1.23-.92-1.54-1.93-3.09-3.06-4.58.42-.23.92-.4,1.37-.64,1.93.96,3.8,2.33,5.37,3.9l-.06.09ZM43.37,14.66c2.49.64,4.84,1.75,6.97,3.26l-.06.12-2.05,1.14h-.15c-1.57-1.57-3.41-2.94-5.28-4.02.06-.2.36-.35.56-.5ZM42.18,14.37v.06c-2.58,1.86-6.76,2.04-9.49.32-.15-.12-.45-.17-.48-.38,3.15-.73,6.85-.79,9.97,0ZM24.08,17.99c1.87-1.37,3.95-2.39,6.14-3.09.09-.09.15-.18.27-.18v.06c.24.06.42-.21.62-.03.18.15.39.27.53.41-1.84,1.13-3.65,2.48-5.31,4.11-.8-.29-1.54-.73-2.25-1.22v-.06Z"/>
            <path class="cls-1" d="M36.81,41.3c-2.79.76-5.82.18-7.83-1.92-.24-.29-.38-.64-.62-.93l-4,.03c-.06,2.36-.09,5.07,0,7.4l4.45-.03.06-1.4c.51.23,1.01.52,1.51.78,3.09,1.28,7.06,1.58,10.11,0,2.23-1.22,3.41-3.58,3.09-6.12-.33-2.47-2.7-4.72-5.1-5.33l-7.18-2.07-.53-.26c-.24-.2-.39-.46-.33-.79.56-.96,1.87-.67,2.85-.64,2.08.29,4.21.99,5.43,2.89,1.3,0,2.82.03,4.24-.03.06-2.39-.03-4.49-.06-6.91-1.33-.03-2.97-.03-4.3.03-.06.35.06.84-.09,1.19l-1.36-.73c-3.26-1.37-7.83-1.51-10.8.61-1.93,1.4-2.52,3.91-2.02,6.12.38,2.1,2.4,3.64,4.33,4.37,2.64.93,5.4,1.61,8.07,2.51.27.12.62.38.56.7,0,.26-.27.41-.48.52Z"/>
          </g>
          <g>
            <path class="cls-1" d="M8.76,48.02l.14.33c.03.06,0,.13-.07.16l-4.27,1.85c-.06.03-.13,0-.16-.06l-.14-.33c-.03-.06,0-.13.07-.16l4.28-1.85c.06-.03.14-.01.17.06Z"/>
            <path class="cls-1" d="M7.5,44.57l.1.3c.02.07-.01.15-.08.17l-2.07.7c-.63.21-.75.49-.59.97.09.26.29.52.53.76l2.65-.89c.06-.02.14.01.17.08l.1.31c.02.06-.02.14-.09.16l-3.2,1.08c-.07.02-.14,0-.17-.08l-.11-.31c-.02-.07.02-.14.09-.16l.12-.04c-.31-.28-.5-.53-.63-.9-.26-.75.1-1.25.94-1.53l2.07-.7c.07-.02.14.01.17.08Z"/>
            <path class="cls-1" d="M6.91,42.09c.05.12.1.29.13.41.14.59.05.91-.65,1.08l-2.25.53.08.64c.01.07-.02.13-.09.15l-.17.04c-.07.02-.13-.02-.14-.09l-.15-.62-.63.15c-.06.02-.13-.02-.15-.09l-.13-.32s0-.01,0-.02c-.01-.05.02-.11.09-.12l.7-.17-.17-.7c-.02-.07.03-.14.1-.16l.22-.05c.07-.02.14.03.16.1l.17.7,2.24-.54c.35-.08.38-.19.32-.44l-.09-.36c-.02-.09,0-.14.06-.16l.22-.05c.06-.01.1,0,.14.09Z"/>
            <path class="cls-1" d="M4.79,39.12l.3,2.2h.09c.78-.12,1.03-.47.94-1.07-.05-.38-.15-.86-.23-1.16,0-.01,0-.02,0-.03,0-.05.01-.11.08-.12l.22-.03c.09-.01.13,0,.17.11.12.36.21.72.28,1.16.1.75-.15,1.54-1.37,1.71l-.59.08c-.94.13-1.6-.3-1.74-1.24-.13-.96.4-1.53,1.34-1.66l.35-.05c.09-.01.15.03.16.11ZM4.36,39.65c-.74.1-.99.42-.91,1,.08.56.44.83,1.15.74h.06s-.24-1.75-.24-1.75h-.06Z"/>
            <path class="cls-1" d="M3.12,36.83c.02.31.11.58.32.9l2.77-.14c.06,0,.13.05.14.13l.02.32c0,.07-.05.13-.13.13l-3.37.18c-.07,0-.13-.05-.14-.12l-.02-.31c0-.07.05-.13.12-.13h.14c-.25-.33-.35-.62-.37-.92,0-.09.03-.14.11-.14h.27c.07-.02.12.03.12.12Z"/>
            <path class="cls-1" d="M6.37,33.39v.32c-.02.07-.08.13-.15.13l-2.17-.09c-.67-.03-.88.19-.9.69-.01.28.08.59.22.9l2.78.11c.06,0,.13.06.13.14v.32c-.02.07-.08.12-.15.12l-3.37-.13c-.07,0-.13-.06-.13-.13v-.33c.02-.07.08-.12.15-.12h.12c-.19-.37-.28-.67-.26-1.06.03-.79.54-1.13,1.42-1.09l2.17.09c.07,0,.13.06.13.14Z"/>
            <path class="cls-1" d="M6.8,30.15l-.05.3c-.01.07-.08.12-.15.11l-.14-.02c.14.34.23.69.17,1.05-.08.56-.4,1.03-1.22.91h-.08c-.71-.12-1-.58-.83-1.75l.07-.48-.26-.04c-.55-.08-.77.08-.84.59-.06.43-.08.74-.1,1.01,0,.01,0,.02,0,.03-.01.06-.04.12-.12.1l-.23-.03c-.07-.01-.1-.06-.1-.16,0-.28,0-.58.06-1.03.13-.91.65-1.21,1.42-1.09l2.28.34c.07.01.12.08.11.15ZM5,30.34l-.07.48c-.12.79.03,1.03.49,1.1h.08c.47.08.63-.12.68-.5.04-.3,0-.58-.13-.92l-1.05-.15Z"/>
            <path class="cls-1" d="M7.38,27.71c-.01.13-.04.3-.07.43-.14.59-.36.84-1.07.67l-2.25-.53-.22.61c-.02.07-.07.11-.14.1l-.17-.04c-.07-.02-.1-.08-.09-.15l.15-.63-.63-.15c-.06-.02-.11-.07-.1-.15l.03-.35s0-.01,0-.02c.01-.05.07-.09.13-.07l.7.17.17-.69c.02-.07.09-.11.16-.1l.22.05c.07.02.11.09.1.16l-.17.69,2.24.54c.35.08.43,0,.49-.25l.09-.36c.02-.09.06-.13.12-.11l.22.05c.06.01.09.05.08.14Z"/>
            <path class="cls-1" d="M3.68,25.39l-.1.32c-.02.07-.1.11-.17.09l-.51-.16c-.07-.02-.11-.1-.09-.17l.1-.32c.02-.07.1-.11.17-.09l.51.15c.07.02.11.1.09.17ZM7.7,26.64l-.09.3c-.02.07-.1.11-.17.09l-3.22-.99c-.07-.02-.11-.1-.09-.17l.09-.3c.02-.07.1-.11.17-.09l3.22.99c.07.02.11.1.09.17Z"/>
            <path class="cls-1" d="M8.51,24.48c-.36.9-1.14,1.12-2.04.76l-.46-.18c-.9-.36-1.31-1.06-.96-1.96.36-.9,1.14-1.13,2.04-.77l.47.19c.9.36,1.31,1.06.95,1.96ZM6.88,22.87c-.62-.25-1.12-.16-1.35.42-.23.57.06.98.7,1.23l.46.18c.63.25,1.12.16,1.35-.41.22-.57-.06-.98-.7-1.23l-.47-.19Z"/>
            <path class="cls-1" d="M10.54,20.2l-.15.28c-.03.06-.12.09-.18.05l-1.92-1.03c-.59-.32-.88-.21-1.11.23-.13.25-.19.57-.2.91l2.46,1.32c.06.03.09.12.05.18l-.15.28c-.03.06-.11.08-.18.05l-2.97-1.6c-.06-.03-.09-.11-.06-.17l.16-.29c.04-.06.11-.08.18-.05l.11.06c0-.42.05-.73.23-1.07.37-.7.98-.78,1.76-.36l1.92,1.03c.06.04.09.12.05.18Z"/>
            <path class="cls-1" d="M12.32,17.51l-.17.25c-.04.06-.12.07-.18.03l-.12-.08c-.03.36-.1.72-.31,1.02-.32.47-.81.75-1.49.28l-.06-.04c-.59-.4-.65-.95.02-1.92l.28-.4-.22-.15c-.46-.31-.72-.26-1.02.16-.24.35-.4.63-.53.86,0,.01-.01.02-.02.03-.03.05-.08.09-.15.04l-.19-.13c-.06-.04-.07-.1-.03-.19.12-.25.26-.52.51-.89.52-.76,1.11-.8,1.75-.36l1.9,1.3c.06.04.07.12.03.18ZM10.62,16.89l-.28.4c-.45.66-.42.93-.04,1.2l.06.04c.39.27.62.16.84-.16.17-.25.25-.52.29-.88l-.88-.6Z"/>
            <path class="cls-1" d="M13.2,16.4l-.22.27c-.04.05-.12.06-.18.01l-3.68-2.95c-.05-.04-.07-.11-.03-.17l.22-.27c.04-.05.11-.06.17-.02l3.68,2.95c.05.04.08.12.03.18Z"/>
            <path class="cls-1" d="M16.09,13.38c-.76.71-1.72.78-2.73-.29l-.58-.62c-1-1.07-.87-2.03-.11-2.74.76-.71,1.72-.78,2.72.29l.58.62c1,1.07.87,2.02.12,2.74ZM14.94,10.44c-.76-.81-1.38-.81-1.91-.32-.53.49-.57,1.12.19,1.93l.58.62c.76.81,1.38.81,1.91.31.52-.49.57-1.11-.19-1.92l-.58-.62Z"/>
            <path class="cls-1" d="M17.17,8.28c-.24.19-.41.42-.56.77l1.68,2.2c.04.05.03.14-.02.19l-.26.2c-.05.04-.13.03-.18-.03l-2.05-2.68c-.05-.06-.04-.14.02-.18l.25-.19c.06-.04.14-.03.18.03l.09.11c.12-.38.31-.64.55-.82.07-.06.13-.05.18.01l.17.21c.04.06.03.12-.04.17Z"/>
            <path class="cls-1" d="M20.17,6.29l-.18.17c.17.04.36.15.56.45l.03.04c.39.61.23,1.19-.63,1.74-.29.19-.51.26-.72.3-.06.11-.07.2-.02.28.06.1.14.12.29.07l.97-.32c.63-.21,1.26-.39,1.59.14l.03.04c.34.53.19,1.09-.72,1.67-.88.56-1.5.48-1.84-.07l-.03-.05c-.2-.31-.19-.67-.1-.93h-.05c-.23.04-.42-.09-.53-.26h0c-.1-.15-.13-.36-.03-.55-.28-.05-.49-.2-.67-.48l-.03-.05c-.32-.5-.35-1.16.61-1.77l1.22-.78c.07-.04.16-.03.21.04l.09.14c.05.07.02.12-.03.17ZM20.07,7.22c-.21-.33-.53-.5-1.13-.12-.63.4-.57.76-.37,1.08l.03.04c.15.25.47.5,1.11.09.6-.38.6-.71.39-1.05l-.03-.05ZM21.57,9.48c-.14-.22-.37-.19-.96,0l-.73.24c-.07.24-.1.45.09.74l.03.05c.2.31.51.39,1.13,0,.64-.41.67-.68.47-.98l-.03-.04Z"/>
            <path class="cls-1" d="M24.58,7.63l-.27.13c-.06.03-.14,0-.18-.06l-.06-.13c-.2.3-.44.58-.77.74-.5.25-1.07.26-1.44-.49l-.04-.07c-.32-.64-.1-1.15.96-1.67l.44-.22-.12-.24c-.25-.5-.5-.59-.97-.36-.38.19-.66.35-.88.49-.01,0-.02.01-.03.02-.05.03-.12.04-.15-.04l-.1-.21c-.03-.06,0-.12.07-.17.22-.16.48-.33.88-.53.82-.41,1.36-.15,1.71.54l1.02,2.07c.03.06,0,.14-.06.18ZM23.4,6.25l-.44.21c-.72.35-.83.61-.62,1.03l.04.07c.21.43.47.44.81.27.27-.13.48-.34.68-.63l-.47-.95Z"/>
            <path class="cls-1" d="M27.86,6.37l-.3.11c-.07.02-.14-.01-.17-.08l-.74-2.04c-.23-.63-.51-.74-.98-.57-.26.1-.52.3-.75.55l.95,2.62c.02.06-.01.14-.08.17l-.3.11c-.06.02-.14-.01-.16-.08l-1.15-3.17c-.02-.07,0-.14.07-.17l.31-.11c.07-.03.14.01.16.08l.04.12c.27-.32.52-.51.88-.65.75-.27,1.25.07,1.55.9l.74,2.04c.02.07-.01.14-.08.17Z"/>
            <path class="cls-1" d="M28.13,1.93l-.33.09c-.07.02-.14-.02-.16-.09l-.14-.51c-.02-.07.02-.14.09-.16l.33-.09c.07-.02.14.02.16.09l.14.51c.02.07-.02.14-.09.16ZM29.23,6l-.31.08c-.07.02-.14-.02-.16-.09l-.88-3.25c-.02-.07.02-.14.09-.16l.3-.08c.07-.02.14.02.16.09l.88,3.25c.02.07-.02.14-.09.16Z"/>
            <path class="cls-1" d="M32.39,5.31l-1.96.38c-.28.05-.43-.1-.47-.28l-.02-.12c-.04-.18-.02-.29.07-.45l1.27-2.41s.02-.04.02-.06c0-.03-.02-.04-.07-.03l-1.58.31c-.07.02-.14-.03-.16-.1l-.04-.22c-.02-.07.03-.14.1-.16l1.91-.37c.27-.05.39.05.43.25l.03.16c.03.13,0,.24-.08.38l-1.29,2.47s-.02.06-.02.08c0,.03.02.05.06.04l1.71-.34c.07-.02.14.03.16.1l.04.22c.01.07-.03.14-.1.16Z"/>
            <path class="cls-1" d="M35.48,4.99l-.3.03c-.07,0-.14-.05-.14-.12v-.14c-.31.21-.63.38-1,.42-.56.05-1.09-.14-1.17-.97v-.08c-.07-.71.31-1.1,1.48-1.21l.49-.04-.02-.26c-.05-.55-.26-.73-.77-.68-.43.04-.74.1-1,.14-.01,0-.02,0-.03,0-.06,0-.12-.01-.13-.1l-.02-.23c0-.07.03-.12.13-.14.26-.07.56-.14,1.01-.18.91-.08,1.33.34,1.4,1.12l.21,2.3c0,.07-.05.14-.12.14ZM34.87,3.28l-.49.05c-.8.07-.99.27-.95.74v.08c.05.47.29.58.67.54.3-.03.57-.14.87-.35l-.1-1.06Z"/>
            <path class="cls-1" d="M38.02,4.96c-.13.02-.3.04-.43.04-.61.01-.9-.14-.91-.87l-.03-2.31-.64-.06c-.07,0-.13-.05-.13-.12v-.18c0-.07.05-.12.12-.12h.64s-.01-.66-.01-.66c0-.06.04-.12.12-.13l.34-.06h.02c.05,0,.1.04.1.11v.72s.73-.01.73-.01c.07,0,.13.06.13.13v.22c0,.07-.05.13-.13.13h-.72s.04,2.32.04,2.32c0,.36.1.42.36.41h.37c.09,0,.14.02.14.09v.23c0,.06-.03.1-.11.11Z"/>
            <path class="cls-1" d="M39.17,5.02l-.32-.02c-.07,0-.13-.07-.12-.14l.2-3.37c0-.07.07-.13.14-.12l.32.02c.07,0,.13.07.12.14l-.2,3.36c0,.07-.07.13-.14.13ZM39.43.81l-.34-.02c-.07,0-.13-.07-.12-.14l.03-.53c0-.07.07-.13.14-.12l.34.02c.07,0,.13.07.12.14l-.03.53c0,.07-.07.13-.14.12Z"/>
            <path class="cls-1" d="M41.45,5.29c-.97-.13-1.37-.83-1.24-1.8l.07-.5c.13-.96.71-1.53,1.67-1.4.97.13,1.38.83,1.25,1.8l-.07.5c-.13.96-.72,1.53-1.68,1.4ZM42.61,3.31c.09-.67-.12-1.13-.74-1.22-.61-.08-.93.3-1.03.98l-.07.5c-.09.67.11,1.13.73,1.22.61.08.94-.3,1.03-.98l.07-.5Z"/>
            <path class="cls-1" d="M46.09,6.22l-.31-.08c-.07-.02-.11-.09-.1-.16l.54-2.11c.17-.65,0-.9-.49-1.03-.27-.07-.6-.04-.93.03l-.69,2.71c-.02.06-.09.11-.16.1l-.31-.08c-.06-.02-.11-.09-.09-.16l.83-3.27c.02-.07.09-.12.15-.1l.32.08c.07.02.11.09.09.16l-.03.12c.4-.11.71-.13,1.09-.03.77.2.99.76.78,1.62l-.54,2.11c-.02.07-.09.11-.16.1Z"/>
            <path class="cls-1" d="M51.69,3.45l-.29-.12c-.29-.12-.41-.07-.54.27l-.18.44.64.26c.07.03.1.1.07.16l-.1.24c-.03.06-.09.08-.16.06l-.64-.27-1.15,2.79c-.03.06-.11.1-.17.07l-.3-.12c-.07-.03-.1-.11-.07-.17l1.15-2.79-.57-.31c-.06-.03-.1-.1-.07-.16l.07-.17c.03-.06.09-.09.16-.06l.59.25.18-.44c.27-.66.67-.72,1.21-.5.17.07.26.13.33.18.06.05.1.09.08.15l-.09.2c-.03.07-.08.07-.15.05Z"/>
            <path class="cls-1" d="M51.53,8.51c-.86-.45-1-1.25-.55-2.11l.23-.44c.45-.86,1.19-1.2,2.05-.75.86.45,1.01,1.25.56,2.11l-.23.45c-.45.86-1.19,1.19-2.05.74ZM53.3,7.05c.31-.6.27-1.1-.28-1.39-.54-.28-.98-.04-1.3.57l-.23.45c-.31.6-.28,1.1.27,1.39.54.29.98.04,1.3-.56l.23-.44Z"/>
            <path class="cls-1" d="M56.35,7.64c-.26-.16-.53-.25-.91-.26l-1.5,2.32c-.04.05-.12.08-.18.04l-.27-.17c-.05-.04-.07-.12-.03-.18l1.82-2.83c.04-.06.12-.08.18-.04l.26.17c.06.04.07.12.03.18l-.08.12c.4-.02.71.08.95.24.08.05.1.11.05.18l-.15.23c-.04.06-.1.07-.18.02Z"/>
            <path class="cls-1" d="M57.25,12.38c-.35-.3-.58-.56-.77-.79-.07-.09-.06-.12-.02-.17l.17-.2c.05-.05.11-.05.15,0,0,0,.01.01.02.01.21.22.57.54.8.74.6.52.97.42,1.27.06.22-.25.19-.51-.02-1.19l-.23-.71c-.22-.68-.23-1.13.12-1.53.52-.61,1.2-.51,1.96.14.29.26.65.62.82.81.04.05.05.11.01.16l-.19.21s-.1.05-.15,0t-.01-.01c-.21-.2-.54-.52-.83-.77-.52-.44-.83-.52-1.15-.16-.2.24-.16.52.02,1.08l.22.67c.28.84.25,1.3-.1,1.7-.41.48-1.11.79-2.1-.06Z"/>
            <path class="cls-1" d="M60.04,15c-.11-.08-.23-.19-.32-.28-.43-.43-.51-.75,0-1.26l1.65-1.61-.4-.51c-.05-.05-.05-.12,0-.17l.13-.12c.05-.05.12-.04.17,0l.45.46.46-.45s.12-.05.18,0l.28.21s0,0,.01.01c.04.04.04.1-.01.15l-.52.5.5.51c.05.05.05.14,0,.19l-.16.16c-.05.05-.14.05-.19,0l-.5-.51-1.65,1.61c-.26.25-.23.36-.05.54l.26.26c.06.07.08.12.03.17l-.17.16s-.1.04-.17,0Z"/>
            <path class="cls-1" d="M61.95,17.27l-.19-.24c-.05-.06-.04-.14.02-.19l.11-.09c-.34-.13-.66-.3-.89-.59-.36-.43-.49-.99.15-1.51l.06-.05c.56-.45,1.1-.35,1.84.56l.31.38.21-.17c.43-.35.46-.62.13-1.02-.27-.33-.49-.56-.68-.75,0-.01-.01-.02-.02-.03-.04-.05-.06-.1,0-.16l.18-.15c.06-.05.12-.04.19.03.21.18.43.39.72.74.58.71.45,1.29-.15,1.78l-1.79,1.46c-.06.05-.14.04-.19-.02ZM63.03,15.81l-.31-.38c-.5-.62-.78-.67-1.14-.38l-.06.05c-.37.3-.33.55-.08.85.19.24.43.39.77.52l.82-.67Z"/>
            <path class="cls-1" d="M63.89,20.16l-.17-.27c-.04-.06-.02-.14.04-.18l1.83-1.18c.56-.36.61-.66.34-1.08-.15-.23-.41-.44-.7-.61l-2.34,1.52c-.05.04-.14.02-.18-.04l-.18-.27c-.04-.06-.02-.14.04-.18l2.83-1.83c.06-.04.14-.03.18.03l.18.28c.04.06.02.14-.04.18l-.11.07c.37.19.61.39.83.72.43.67.21,1.23-.53,1.71l-1.83,1.18c-.06.04-.14.02-.18-.04Z"/>
            <path class="cls-1" d="M65.51,23.14c-.25-.33-.46-.68-.64-1.04-.44-.88-.07-1.57.82-2.02l.43-.21c.93-.46,1.66-.29,2.09.57.09.18.21.47.29.72l1.1-.55c.06-.03.13,0,.17.06l.15.3c.03.06,0,.13-.06.16l-4.14,2.06c-.08.04-.13.04-.2-.06ZM68.05,21.38c-.06-.21-.21-.52-.3-.71-.29-.58-.74-.59-1.38-.27l-.42.21c-.65.32-.91.68-.62,1.27.1.2.26.48.38.67l2.35-1.17Z"/>
            <path class="cls-1" d="M66.64,26.23l-.11-.28c-.03-.07.01-.14.08-.17l.14-.05c-.28-.23-.53-.49-.66-.84-.19-.53-.14-1.1.63-1.38l.08-.03c.67-.25,1.15.02,1.56,1.12l.17.46.25-.09c.52-.19.63-.44.45-.92-.15-.4-.28-.69-.4-.93,0-.01,0-.02-.01-.03-.02-.05-.02-.12.06-.15l.22-.08c.07-.03.12,0,.17.09.14.24.28.51.44.93.32.86.02,1.37-.72,1.64l-2.16.8c-.07.03-.14-.01-.17-.08ZM68.13,25.19l-.17-.46c-.28-.75-.52-.88-.96-.72l-.07.03c-.45.17-.49.42-.35.78.11.29.29.51.56.74l1-.37Z"/>
            <path class="cls-1" d="M70.34,27.64c-.08-.29-.23-.54-.51-.81l-2.67.74c-.06.02-.14-.02-.16-.09l-.09-.31c-.02-.06.03-.14.1-.16l3.25-.9c.07-.02.14.02.16.08l.08.3c.02.07-.02.14-.09.16l-.13.04c.31.26.48.53.55.81.03.09,0,.14-.08.17l-.26.07c-.07.02-.12-.01-.14-.1Z"/>
            <path class="cls-1" d="M67.92,31.39c-.15-.39-.26-.78-.33-1.18-.18-.97.37-1.53,1.34-1.71l.47-.09c1.02-.19,1.68.17,1.85,1.12.04.2.08.51.08.77l1.21-.22c.06-.01.13.03.14.1l.06.33c.01.06-.03.13-.1.14l-4.55.85c-.09.02-.13,0-.18-.11ZM70.85,30.4c0-.22-.06-.56-.1-.77-.12-.64-.55-.77-1.25-.64l-.47.09c-.71.13-1.07.41-.95,1.05.04.22.12.54.18.75l2.58-.48Z"/>
            <path class="cls-1" d="M68,32.79l-.03-.32c0-.07.04-.14.12-.14l3.35-.35c.07,0,.14.04.14.12l.03.32c0,.07-.05.14-.12.14l-3.35.35c-.07,0-.14-.04-.15-.12ZM72.2,32.36l-.04-.34c0-.07.05-.14.12-.14l.53-.05c.07,0,.14.04.14.12l.03.34c0,.07-.04.14-.12.15l-.53.05c-.07,0-.14-.05-.14-.12Z"/>
            <path class="cls-1" d="M68.17,36.03l-.06-2c-.01-.29.17-.41.35-.42h.13c.18-.01.28.03.43.13l2.18,1.64s.04.03.06.03c.03,0,.05-.02.04-.07l-.05-1.61c0-.07.06-.13.13-.14h.22c.07,0,.13.05.14.12l.06,1.95c0,.27-.11.37-.31.38h-.16c-.14.01-.24-.03-.37-.14l-2.23-1.67s-.05-.03-.08-.03c-.03,0-.05,0-.05.05l.05,1.75c0,.07-.05.13-.13.14h-.22c-.07,0-.13-.05-.14-.12Z"/>
            <path class="cls-1" d="M68,39.18l.02-.3c0-.07.07-.13.14-.12h.14c-.16-.32-.28-.66-.25-1.03.04-.56.32-1.06,1.14-1h.08c.71.06,1.04.5.96,1.67l-.03.49.26.02c.56.04.76-.14.8-.65.03-.43.03-.75.02-1.01,0-.01,0-.02,0-.03,0-.06.03-.12.11-.11l.23.02c.07,0,.11.05.11.15.03.27.05.58.02,1.03-.06.92-.55,1.25-1.33,1.2l-2.3-.16c-.07,0-.13-.07-.12-.14ZM69.78,38.85l.03-.49c.06-.8-.11-1.02-.57-1.06h-.08c-.48-.04-.62.18-.64.56-.02.3.05.58.2.91l1.06.07Z"/>
            <path class="cls-1" d="M67.61,41.67c0-.13.02-.31.04-.43.09-.6.3-.87,1.02-.75l2.28.36.17-.62c.02-.07.06-.12.14-.11l.18.03c.07.01.11.07.1.14l-.1.64.64.1c.06.01.11.06.11.14v.35s0,.01,0,.02c-.01.05-.06.09-.13.08l-.71-.11-.11.7c-.01.07-.08.12-.15.11l-.22-.04c-.07-.01-.12-.08-.11-.15l.11-.71-2.28-.36c-.36-.06-.43.03-.47.29l-.06.36c-.02.09-.05.13-.11.12l-.23-.04c-.06,0-.09-.05-.09-.13Z"/>
            <path class="cls-1" d="M67.38,42.79l.07-.31c.02-.07.09-.12.16-.1l3.29.73c.07.02.12.09.1.16l-.07.31c-.02.07-.09.12-.16.1l-3.29-.73c-.07-.02-.12-.09-.1-.16ZM71.5,43.72l.07-.33c.02-.07.09-.12.16-.1l.52.12c.07.02.12.09.1.16l-.07.33c-.02.07-.09.12-.16.1l-.52-.11c-.07-.02-.12-.09-.1-.16Z"/>
            <path class="cls-1" d="M66.75,44.98c.28-.93,1.04-1.21,1.97-.93l.48.15c.93.28,1.4.95,1.11,1.88-.28.93-1.05,1.22-1.97.93l-.48-.15c-.93-.28-1.4-.95-1.11-1.88ZM68.51,46.45c.64.2,1.13.06,1.32-.53.18-.59-.14-.97-.8-1.17l-.48-.15c-.65-.2-1.13-.07-1.31.52-.18.59.14.98.79,1.18l.48.15Z"/>
            <path class="cls-1" d="M65.09,49.38l.13-.29c.03-.07.11-.1.18-.07l1.99.87c.61.27.89.15,1.09-.31.11-.26.14-.58.12-.92l-2.56-1.12c-.06-.03-.1-.11-.07-.17l.13-.3c.03-.06.11-.09.17-.06l3.09,1.35c.07.03.1.1.07.17l-.13.3c-.03.07-.1.09-.17.06l-.12-.05c.04.41.02.73-.14,1.09-.32.73-.91.86-1.72.5l-1.99-.87c-.07-.03-.1-.11-.07-.18Z"/>
          </g>
          <g>
            <path class="cls-1" d="M19.94,70.23v-.15c0-1.22.46-1.97,1.05-2.82.55-.8.73-1.02.73-1.7,0-.46-.05-.66-.33-.66-.25,0-.34.2-.34.62v.37h-1.11v-.34c0-.75.23-1.64,1.51-1.64,1.15,0,1.49.71,1.49,1.67s-.33,1.4-.92,2.22c-.31.41-.66.97-.71,1.4h1.74l-.15,1.05h-2.96Z"/>
            <path class="cls-1" d="M26.29,63.99v.95c-.73,1.39-1.22,3.21-1.44,5.29h-1.26c.17-1.96.83-3.96,1.49-5.18h-1.73v-1.06h2.95Z"/>
            <path class="cls-1" d="M29.86,65.59v2.96c0,.97-.35,1.76-1.62,1.76s-1.55-.82-1.55-1.75v-2.91c0-1.13.55-1.75,1.59-1.75s1.58.63,1.58,1.69ZM27.9,65.5v3.21c0,.36.1.57.37.57s.37-.22.37-.59v-3.21c0-.31-.09-.53-.37-.53-.27,0-.37.21-.37.55Z"/>
            <path class="cls-1" d="M33.48,65.59v2.96c0,.97-.35,1.76-1.62,1.76s-1.55-.82-1.55-1.75v-2.91c0-1.13.55-1.75,1.59-1.75s1.58.63,1.58,1.69ZM31.52,65.5v3.21c0,.36.1.57.37.57s.37-.22.37-.59v-3.21c0-.31-.09-.53-.37-.53-.27,0-.37.21-.37.55Z"/>
            <path class="cls-1" d="M34.56,70.23v-4.93c-.18,0-.42-.02-.54-.04v-.89c.4-.03.67-.2.84-.42h.93v6.28h-1.24Z"/>
            <path class="cls-1" d="M37.44,67.05v-1.52h1.17v1.52h-1.17ZM37.44,70.23v-1.52h1.17v1.52h-1.17Z"/>
            <path class="cls-1" d="M39.92,70.23v-.15c0-1.22.46-1.97,1.05-2.82.55-.8.73-1.02.73-1.7,0-.46-.05-.66-.33-.66-.25,0-.34.2-.34.62v.37h-1.11v-.34c0-.75.23-1.64,1.51-1.64,1.15,0,1.49.71,1.49,1.67s-.33,1.4-.92,2.22c-.31.41-.66.97-.71,1.4h1.74l-.15,1.05h-2.96Z"/>
            <path class="cls-1" d="M46.6,65.59v2.96c0,.97-.35,1.76-1.62,1.76s-1.55-.82-1.55-1.75v-2.91c0-1.13.55-1.75,1.59-1.75s1.58.63,1.58,1.69ZM44.63,65.5v3.21c0,.36.1.57.37.57s.37-.22.37-.59v-3.21c0-.31-.09-.53-.37-.53-.27,0-.37.21-.37.55Z"/>
            <path class="cls-1" d="M47.09,70.23v-.15c0-1.22.46-1.97,1.05-2.82.55-.8.73-1.02.73-1.7,0-.46-.05-.66-.33-.66-.25,0-.34.2-.34.62v.37h-1.11v-.34c0-.75.23-1.64,1.51-1.64,1.15,0,1.49.71,1.49,1.67s-.33,1.4-.92,2.22c-.31.41-.66.97-.71,1.4h1.74l-.15,1.05h-2.96Z"/>
            <path class="cls-1" d="M50.55,70.23v-.15c0-1.22.46-1.97,1.05-2.82.55-.8.73-1.02.73-1.7,0-.46-.05-.66-.33-.66-.25,0-.34.2-.34.62v.37h-1.11v-.34c0-.75.23-1.64,1.51-1.64,1.15,0,1.49.71,1.49,1.67s-.33,1.4-.92,2.22c-.31.41-.66.97-.71,1.4h1.74l-.15,1.05h-2.96Z"/>
          </g>
        </g>
      </g>
      <g>
        <path class="cls-2" d="M12.88,105.9h1.28l-3.01,10.03h-1.45l-2.62-8.17-2.62,8.17h-1.44l-3.04-10.03h1.32l2.51,8.33,2.63-8.33h1.37l2.6,8.24,2.45-8.24Z"/>
        <path class="cls-2" d="M28.34,105.9h1.28l-3.01,10.03h-1.45l-2.62-8.17-2.62,8.17h-1.44l-3.04-10.03h1.32l2.51,8.33,2.63-8.33h1.37l2.6,8.24,2.45-8.24Z"/>
        <path class="cls-2" d="M43.79,105.9h1.28l-3.01,10.03h-1.45l-2.62-8.17-2.62,8.17h-1.44l-3.04-10.03h1.32l2.51,8.33,2.63-8.33h1.37l2.6,8.24,2.45-8.24Z"/>
        <path class="cls-2" d="M47.04,115.81c-.21.21-.47.32-.78.32s-.57-.11-.78-.32c-.21-.21-.32-.47-.32-.78s.11-.57.32-.78c.21-.21.47-.32.78-.32s.57.11.78.32c.21.21.32.48.32.78s-.11.57-.32.78Z"/>
        <path class="cls-2" d="M51.3,107.56c.62-1.22,1.67-1.83,3.17-1.83v1.28c-.91,0-1.67.27-2.27.8-.6.54-.9,1.38-.9,2.53v5.58h-1.33v-10.03h1.33v1.67Z"/>
        <path class="cls-2" d="M64.3,105.9h1.33v10.03h-1.33v-1.97c-.92,1.47-2.27,2.21-4.05,2.21-1.43,0-2.65-.51-3.66-1.53-1.01-1.02-1.51-2.26-1.51-3.73s.5-2.72,1.51-3.73c1.01-1.02,2.23-1.53,3.66-1.53,1.78,0,3.13.74,4.05,2.21v-1.97ZM57.54,113.73c.76.77,1.7,1.15,2.81,1.15s2.05-.38,2.81-1.15c.76-.77,1.14-1.71,1.14-2.82s-.38-2.05-1.14-2.82-1.7-1.15-2.81-1.15-2.05.38-2.81,1.15c-.76.77-1.14,1.71-1.14,2.82s.38,2.05,1.14,2.82Z"/>
        <path class="cls-2" d="M77.07,105.9h1.32v10.03h-1.32v-1.97c-.92,1.47-2.28,2.21-4.05,2.21-1.43,0-2.65-.51-3.66-1.53-1.01-1.02-1.52-2.26-1.52-3.73s.5-2.72,1.52-3.73c1.01-1.02,2.23-1.53,3.66-1.53,1.78,0,3.13.74,4.05,2.21v-1.97ZM70.3,113.73c.76.77,1.7,1.15,2.81,1.15s2.05-.38,2.81-1.15c.76-.77,1.14-1.71,1.14-2.82s-.38-2.05-1.14-2.82-1.7-1.15-2.81-1.15-2.05.38-2.81,1.15-1.14,1.71-1.14,2.82.38,2.05,1.14,2.82Z"/>
        <path class="cls-2" d="M82.24,108.5c0,.45.2.8.61,1.07.41.26.9.48,1.47.64.58.17,1.15.33,1.73.49.58.16,1.06.46,1.46.89.4.43.59.99.59,1.69,0,.86-.34,1.55-1.01,2.09s-1.55.8-2.62.8c-.96,0-1.78-.21-2.46-.64s-1.15-.98-1.42-1.67l1.12-.66c.19.52.53.93,1.01,1.23s1.07.45,1.74.45,1.2-.13,1.65-.39.66-.67.66-1.21c0-.46-.2-.82-.6-1.08-.4-.27-.89-.48-1.46-.65-.58-.16-1.15-.33-1.73-.49-.58-.17-1.06-.46-1.46-.88-.4-.42-.6-.97-.6-1.66,0-.82.32-1.5.97-2.05.65-.55,1.47-.82,2.46-.82.82,0,1.53.18,2.15.55.62.37,1.07.87,1.37,1.5l-1.1.64c-.39-.94-1.19-1.41-2.41-1.41-.58,0-1.07.13-1.48.4-.42.27-.62.66-.62,1.16Z"/>
        <path class="cls-2" d="M98.43,114.66c-1.02,1.01-2.27,1.52-3.74,1.52s-2.72-.51-3.74-1.52-1.54-2.26-1.54-3.74.51-2.73,1.54-3.74c1.02-1.01,2.27-1.51,3.74-1.51s2.72.5,3.74,1.51c1.02,1.01,1.54,2.26,1.54,3.74s-.51,2.73-1.54,3.74ZM91.88,113.73c.76.77,1.7,1.15,2.81,1.15s2.05-.38,2.81-1.15c.76-.77,1.14-1.71,1.14-2.82s-.38-2.05-1.14-2.82-1.7-1.15-2.81-1.15-2.05.38-2.81,1.15c-.76.77-1.14,1.71-1.14,2.82s.38,2.05,1.14,2.82Z"/>
        <path class="cls-2" d="M106.79,102.93c-.98-.08-1.7.09-2.18.5s-.71,1.1-.71,2.07v.4h2.89v1.28h-2.89v8.75h-1.33v-8.75h-1.71v-1.28h1.71v-.4c0-1.31.36-2.3,1.09-2.98.73-.68,1.77-.97,3.12-.87v1.28Z"/>
        <path class="cls-2" d="M113.91,107.18h-2.89v6.08c0,.55.11.94.32,1.17s.54.35.96.36c.43,0,.96,0,1.61-.03v1.16c-1.41.21-2.46.11-3.16-.3-.7-.41-1.05-1.2-1.05-2.37v-6.08h-2.11v-1.28h2.11v-2.41l1.32-.4v2.81h2.89v1.28Z"/>
        <path class="cls-2" d="M117.8,115.81c-.21.21-.48.32-.78.32s-.57-.11-.78-.32c-.21-.21-.32-.47-.32-.78s.11-.57.32-.78c.21-.21.47-.32.78-.32s.57.11.78.32c.21.21.32.48.32.78s-.11.57-.32.78Z"/>
        <path class="cls-2" d="M124.61,116.17c-1.51,0-2.77-.51-3.77-1.52-1-1.01-1.5-2.26-1.5-3.74s.5-2.73,1.5-3.74c1-1.01,2.26-1.51,3.77-1.51.99,0,1.88.24,2.67.71.79.48,1.36,1.11,1.73,1.92l-1.08.62c-.27-.6-.7-1.08-1.29-1.43-.6-.35-1.27-.53-2.02-.53-1.11,0-2.05.38-2.81,1.15-.76.77-1.14,1.71-1.14,2.82s.38,2.05,1.14,2.82c.76.77,1.7,1.15,2.81,1.15.75,0,1.42-.18,2.01-.53.59-.35,1.05-.83,1.38-1.44l1.1.64c-.42.8-1.02,1.44-1.83,1.91-.8.47-1.69.7-2.67.7Z"/>
        <path class="cls-2" d="M139.33,114.66c-1.02,1.01-2.27,1.52-3.74,1.52s-2.72-.51-3.74-1.52-1.54-2.26-1.54-3.74.51-2.73,1.54-3.74c1.02-1.01,2.27-1.51,3.74-1.51s2.72.5,3.74,1.51c1.02,1.01,1.54,2.26,1.54,3.74s-.51,2.73-1.54,3.74ZM132.78,113.73c.76.77,1.7,1.15,2.81,1.15s2.05-.38,2.81-1.15c.76-.77,1.14-1.71,1.14-2.82s-.38-2.05-1.14-2.82-1.7-1.15-2.81-1.15-2.05.38-2.81,1.15c-.76.77-1.14,1.71-1.14,2.82s.38,2.05,1.14,2.82Z"/>
        <path class="cls-2" d="M153.77,105.66c1.12,0,2.03.36,2.72,1.08.69.72,1.03,1.7,1.03,2.93v6.26h-1.32v-6.26c0-.87-.22-1.54-.67-2.02-.45-.47-1.04-.71-1.78-.71-.83,0-1.5.28-2.02.83-.51.56-.77,1.42-.77,2.6v5.56h-1.32v-6.26c0-.88-.21-1.56-.63-2.03-.42-.47-.99-.7-1.72-.7-.8,0-1.48.28-2.05.84s-.84,1.42-.84,2.59v5.56h-1.32v-10.03h1.32v1.46c.72-1.14,1.75-1.71,3.07-1.71,1.45,0,2.46.61,3.05,1.83.72-1.22,1.81-1.83,3.25-1.83Z"/>
      </g>
    </g>
  </g>
</svg>