<?xml version="1.0" encoding="UTF-8"?>
<svg id="Layer_2" data-name="Layer 2" xmlns="http://www.w3.org/2000/svg" viewBox="0 0 273.61 72.52">
  <defs>
    <style>
      .cls-1 {
        fill: #fffffc;
      }

      .cls-2 {
        fill: #fbb116;
      }
    </style>
  </defs>
  <g id="Layer_1-2" data-name="Layer 1">
    <g>
      <path class="cls-1" d="M16.59,32.38c-2.84,0-5.29,1.03-7.34,3.08-2.05,2.06-3.08,4.5-3.08,7.34v29.1H0v-29.1c0-3.26.86-6.24,2.58-8.93,1.72-2.69,3.97-4.7,6.75-6.03l.18-.09c2.23-1.03,4.59-1.54,7.07-1.54,3.87,0,7.31,1.18,10.33,3.54l-6.16,3.54c-1.39-.6-2.78-.91-4.17-.91Z"/>
      <path class="cls-1" d="M142.89,63.86c1.69,1.57,4.17,2.36,7.43,2.36,2.84,0,5.14-.66,6.89-1.99,1.75-1.33,2.63-3.05,2.63-5.17,0-1.99-.39-3.47-1.18-4.44-.79-.97-1.8-1.59-3.04-1.86-1.24-.27-2.95-.44-5.12-.5-3.14-.18-5.71-.53-7.7-1.04-1.99-.51-3.81-1.68-5.44-3.49-1.99-2.48-2.99-5.2-2.99-8.16,0-.72.03-1.27.09-1.63.48-3.81,2.08-6.72,4.8-8.75,2.72-2.02,6.37-3.04,10.97-3.04h.09c3.38,0,6.13.63,8.25,1.9,2.11,1.27,3.75,2.81,4.89,4.62,1.21,1.99,1.96,4.08,2.27,6.25h-6.35c-.12-.85-.51-1.84-1.18-2.99-1.51-2.3-4.14-3.5-7.89-3.63-3.81,0-6.32.63-7.52,1.9-1.21,1.27-1.93,2.75-2.18,4.44-.06.24-.09.58-.09,1,0,1.45.51,2.75,1.54,3.9.85,1.03,1.93,1.71,3.26,2.04,1.33.33,3.23.59,5.71.77,1.99.12,3.7.3,5.12.54,1.42.24,2.76.7,4.03,1.36,3.93,2.12,5.89,5.71,5.89,10.79,0,1.75-.35,3.43-1.04,5.03-.7,1.6-1.68,3.01-2.95,4.22-2.84,2.78-6.74,4.17-11.69,4.17s-8.76-1.36-11.78-4.08c-2.36-2.3-3.81-5.14-4.35-8.52h6.35c.48,1.69,1.24,3.02,2.27,3.99Z"/>
      <path class="cls-1" d="M237.69,20.01c-1.96,1.78-3.1,3.97-3.4,6.57h10.33v6.16h-10.42v39.16h-6.16v-39.16h-4.71v-6.16h4.71c.18-2.84,1.04-5.44,2.58-7.8,1.54-2.36,3.54-4.21,5.98-5.57,2.45-1.36,5.12-2.04,8.02-2.04v6.16c-2.66,0-4.97.89-6.93,2.67Z"/>
      <path class="cls-1" d="M273.61,32.75h-7.52v39.16h-6.25v-39.16h-7.52v-6.16h7.52v-14.96h6.25v14.96h7.52v6.16Z"/>
      <path class="cls-1" d="M73.13,49.63c0-12.64-10.25-22.89-22.89-22.89s-22.89,10.25-22.89,22.89,10.25,22.89,22.89,22.89c6.44,0,12.25-2.66,16.41-6.94v6.32h6.35v-19.79c.09-.81.14-1.64.14-2.48ZM50.24,66.04c-9.06,0-16.41-7.35-16.41-16.41s7.35-16.41,16.41-16.41,16.41,7.35,16.41,16.41-7.35,16.41-16.41,16.41Z"/>
      <path class="cls-1" d="M126.59,49.63c0-12.64-10.25-22.89-22.89-22.89s-22.89,10.25-22.89,22.89,10.25,22.89,22.89,22.89c6.44,0,12.25-2.66,16.41-6.94v6.32h6.35v-19.79c.09-.81.14-1.64.14-2.48ZM103.71,66.04c-9.06,0-16.41-7.35-16.41-16.41s7.35-16.41,16.41-16.41,16.41,7.35,16.41,16.41-7.35,16.41-16.41,16.41Z"/>
      <g>
        <g>
          <circle class="cls-2" cx="210.71" cy="40.63" r="7.23"/>
          <path class="cls-1" d="M172.34,47.35c.4-4.09,1.75-7.82,4.08-11.2,2.32-3.38,5.37-5.96,9.15-7.72,3.73-1.74,7.63-2.41,11.71-2.01,4.17.4,7.97,1.82,11.38,4.25-.56.15-1.12.35-1.67.61-.34.16-.67.33-.99.53-2.11,1.27-4.65,1.63-7.05,1.08-.72-.17-1.47-.29-2.22-.36-2.97-.28-5.82.21-8.56,1.49-2.79,1.3-5.03,3.18-6.72,5.64-1.69,2.45-2.67,5.18-2.94,8.17-.27,2.99.24,5.89,1.55,8.68,1.28,2.74,3.15,4.97,5.62,6.68,2.47,1.72,5.18,2.72,8.15,3,2.97.28,5.85-.23,8.64-1.53,2.74-1.28,4.95-3.14,6.64-5.6.9-1.31,1.6-2.7,2.1-4.17.69-2.03,2.27-3.63,4.25-4.46.13-.06.26-.11.4-.17.9-.42,1.7-.95,2.41-1.56.02.89,0,1.78-.09,2.68-.37,4.07-1.72,7.79-4.06,11.14-2.34,3.36-5.36,5.9-9.09,7.64-3.78,1.76-7.7,2.46-11.78,2.09-4.07-.37-7.8-1.71-11.18-4.04-3.38-2.32-5.94-5.35-7.68-9.07-1.76-3.78-2.45-7.71-2.05-11.8Z"/>
        </g>
        <g>
          <path class="cls-2" d="M179.04,14.19l-5.23,20.24,1.13-21.59c1.53.02,2.94.51,4.09,1.35Z"/>
          <path class="cls-2" d="M187.7,7.26s-11.91,25.04-12.18,25.39c-.01.01-.03.04-.03.04l4.56-17.61h0s1.33-5.12,1.33-5.12l1.22-4.71.46-1.78c.77.2,1.48.52,2.12.93,1.09.72,1.96,1.71,2.51,2.86Z"/>
        </g>
        <path class="cls-2" d="M184.02,25.34c1.67-.8,3.37-1.4,5.1-1.82l.19-.4,6.48-13.6c.45-.94.67-1.94.69-2.92.01-.51-.03-1.02-.13-1.51-.32-1.64-1.2-3.15-2.55-4.22-.42-.33-.88-.63-1.38-.87l-.64,1.33-1.66,3.49-8.38,17.58-2.87,6.01-.11.24c1.59-1.28,3.33-2.4,5.26-3.32Z"/>
      </g>
    </g>
  </g>
</svg>