<?xml version="1.0" encoding="UTF-8"?>
<svg id="Layer_2" data-name="Layer 2" xmlns="http://www.w3.org/2000/svg" viewBox="0 0 270.24 92.98">
  <defs>
    <style>
      .cls-1 {
        fill: #fdb014;
      }

      .cls-2 {
        fill: #feffff;
      }
    </style>
  </defs>
  <g id="Layer_1-2" data-name="Layer 1">
    <g>
      <path class="cls-2" d="M2.29.75h6.6v40.16H2.29V.75Z"/>
      <path class="cls-2" d="M29.89,11.47c3.29,0,5.95,1.05,7.97,3.16,2.03,2.1,3.04,4.99,3.04,8.66v17.61h-6.2v-16.98c0-2.14-.57-3.79-1.72-4.93s-2.72-1.72-4.7-1.72c-2.18,0-3.94.68-5.28,2.04-1.34,1.36-2.01,3.43-2.01,6.23v15.38h-6.2V12.22h6.2v3.67c1.87-2.94,4.84-4.42,8.89-4.42Z"/>
      <path class="cls-2" d="M60.93,11.47c3.29,0,5.95,1.05,7.97,3.16,2.03,2.1,3.04,4.99,3.04,8.66v17.61h-6.2v-16.98c0-2.14-.57-3.79-1.72-4.93s-2.72-1.72-4.7-1.72c-2.18,0-3.94.68-5.28,2.04-1.34,1.36-2.01,3.43-2.01,6.23v15.38h-6.2V12.22h6.2v3.67c1.87-2.94,4.84-4.42,8.89-4.42Z"/>
      <path class="cls-2" d="M90.42,41.66c-4.21,0-7.78-1.45-10.73-4.36s-4.42-6.48-4.42-10.73,1.47-7.82,4.42-10.73c2.95-2.91,6.52-4.36,10.73-4.36s7.83,1.46,10.76,4.36c2.93,2.91,4.39,6.48,4.39,10.73s-1.46,7.82-4.39,10.73c-2.93,2.91-6.51,4.36-10.76,4.36ZM84.06,33.05c1.72,1.72,3.84,2.58,6.37,2.58s4.65-.86,6.37-2.58c1.72-1.72,2.58-3.88,2.58-6.48s-.86-4.76-2.58-6.48c-1.72-1.72-3.84-2.58-6.37-2.58s-4.65.86-6.37,2.58-2.58,3.88-2.58,6.48.86,4.76,2.58,6.48Z"/>
      <path class="cls-2" d="M127.78,12.22h6.77l-11.19,28.69h-7.17l-11.19-28.69h6.77l8.03,21.87,7.97-21.87Z"/>
      <path class="cls-2" d="M158.3,12.22h6.2v28.69h-6.2v-4.13c-2.33,3.25-5.68,4.88-10.04,4.88-3.94,0-7.31-1.46-10.1-4.39-2.79-2.93-4.19-6.49-4.19-10.7s1.4-7.82,4.19-10.73c2.79-2.91,6.16-4.36,10.1-4.36,4.36,0,7.71,1.61,10.04,4.82v-4.07ZM142.75,33.13c1.72,1.74,3.88,2.61,6.48,2.61s4.76-.87,6.48-2.61c1.72-1.74,2.58-3.93,2.58-6.57s-.86-4.83-2.58-6.57c-1.72-1.74-3.88-2.61-6.48-2.61s-4.76.87-6.48,2.61c-1.72,1.74-2.58,3.93-2.58,6.57s.86,4.83,2.58,6.57Z"/>
      <path class="cls-2" d="M186.01,18.19h-7.12v13.77c0,1.19.27,2.04.8,2.55.54.52,1.33.8,2.38.86,1.05.06,2.36.05,3.93-.03v5.57c-4.74.57-8.15.16-10.21-1.23-2.07-1.4-3.1-3.97-3.1-7.72v-13.77h-5.28v-5.97h5.28v-6.2l6.2-1.84v8.03h7.12v5.97Z"/>
      <path class="cls-2" d="M195.8,6.74c-.79.79-1.71,1.18-2.78,1.18s-2-.39-2.78-1.18c-.79-.78-1.18-1.71-1.18-2.78s.38-2,1.15-2.78c.76-.78,1.7-1.18,2.81-1.18s2.05.39,2.81,1.18c.76.79,1.15,1.71,1.15,2.78s-.39,2-1.18,2.78ZM189.91,40.91V12.22h6.2v28.69h-6.2Z"/>
      <path class="cls-2" d="M215.1,41.66c-4.21,0-7.78-1.45-10.73-4.36s-4.42-6.48-4.42-10.73,1.47-7.82,4.42-10.73c2.95-2.91,6.52-4.36,10.73-4.36s7.83,1.46,10.76,4.36c2.93,2.91,4.39,6.48,4.39,10.73s-1.46,7.82-4.39,10.73c-2.93,2.91-6.51,4.36-10.76,4.36ZM208.73,33.05c1.72,1.72,3.84,2.58,6.37,2.58s4.65-.86,6.37-2.58c1.72-1.72,2.58-3.88,2.58-6.48s-.86-4.76-2.58-6.48c-1.72-1.72-3.84-2.58-6.37-2.58s-4.65.86-6.37,2.58-2.58,3.88-2.58,6.48.86,4.76,2.58,6.48Z"/>
      <path class="cls-2" d="M249.24,11.47c3.29,0,5.95,1.05,7.97,3.16,2.03,2.1,3.04,4.99,3.04,8.66v17.61h-6.2v-16.98c0-2.14-.57-3.79-1.72-4.93s-2.72-1.72-4.7-1.72c-2.18,0-3.94.68-5.28,2.04-1.34,1.36-2.01,3.43-2.01,6.23v15.38h-6.2V12.22h6.2v3.67c1.87-2.94,4.84-4.42,8.89-4.42Z"/>
      <path class="cls-1" d="M7.46,71.42c0,.94.53,1.69,1.59,2.24,1.06.55,2.33,1.05,3.82,1.51,1.48.46,3,.93,4.56,1.41,1.56.48,2.86,1.37,3.9,2.66,1.04,1.3,1.57,2.93,1.57,4.91,0,2.75-1.06,4.92-3.18,6.48-2.12,1.57-4.79,2.35-8,2.35-2.83,0-5.26-.59-7.29-1.78-2.03-1.18-3.5-2.83-4.42-4.93l5.34-3.1c.99,2.75,3.12,4.13,6.37,4.13s4.88-1.07,4.88-3.21c0-.92-.53-1.66-1.58-2.24-1.05-.57-2.32-1.09-3.8-1.55-1.48-.46-3-.93-4.56-1.41-1.56-.48-2.86-1.34-3.91-2.58-1.05-1.24-1.58-2.82-1.58-4.73,0-2.64,1-4.76,3.01-6.37,2.01-1.61,4.5-2.41,7.49-2.41,2.37,0,4.48.53,6.34,1.58,1.85,1.05,3.28,2.52,4.27,4.39l-5.22,2.93c-1-2.18-2.79-3.27-5.39-3.27-1.19,0-2.18.26-2.98.76-.8.51-1.2,1.26-1.2,2.24Z"/>
      <path class="cls-1" d="M41.48,69.51h-7.12v13.77c0,1.19.27,2.04.8,2.55.54.52,1.33.8,2.38.86,1.05.06,2.36.05,3.93-.03v5.57c-4.74.57-8.15.16-10.21-1.23-2.07-1.4-3.1-3.97-3.1-7.72v-13.77h-5.28v-5.97h5.28v-6.2l6.2-1.84v8.03h7.12v5.97Z"/>
      <path class="cls-1" d="M66.96,63.54h6.2v28.69h-6.2v-4.13c-2.33,3.25-5.68,4.88-10.04,4.88-3.94,0-7.31-1.46-10.1-4.39-2.79-2.93-4.19-6.49-4.19-10.7s1.4-7.82,4.19-10.73c2.79-2.91,6.16-4.36,10.1-4.36,4.36,0,7.71,1.61,10.04,4.82v-4.07ZM51.41,84.46c1.72,1.74,3.88,2.61,6.48,2.61s4.76-.87,6.48-2.61c1.72-1.74,2.58-3.93,2.58-6.57s-.86-4.83-2.58-6.57c-1.72-1.74-3.88-2.61-6.48-2.61s-4.76.87-6.48,2.61c-1.72,1.74-2.58,3.93-2.58,6.57s.86,4.83,2.58,6.57Z"/>
      <path class="cls-1" d="M84.86,68.37c1.57-3.56,4.51-5.34,8.84-5.34v6.71c-2.37-.15-4.44.41-6.2,1.69-1.76,1.28-2.64,3.39-2.64,6.34v14.46h-6.2v-28.69h6.2v4.82Z"/>
      <path class="cls-1" d="M113.32,69.51h-7.12v13.77c0,1.19.27,2.04.8,2.55.54.52,1.33.8,2.38.86,1.05.06,2.36.05,3.93-.03v5.57c-4.74.57-8.15.16-10.21-1.23-2.07-1.4-3.1-3.97-3.1-7.72v-13.77h-5.28v-5.97h5.28v-6.2l6.2-1.84v8.03h7.12v5.97Z"/>
      <path class="cls-1" d="M121.75,71.42c0,.94.53,1.69,1.59,2.24,1.06.55,2.33,1.05,3.82,1.51,1.48.46,3,.93,4.56,1.41,1.56.48,2.86,1.37,3.9,2.66,1.04,1.3,1.57,2.93,1.57,4.91,0,2.75-1.06,4.92-3.18,6.48-2.12,1.57-4.79,2.35-8,2.35-2.83,0-5.26-.59-7.29-1.78-2.03-1.18-3.5-2.83-4.42-4.93l5.34-3.1c.99,2.75,3.12,4.13,6.37,4.13s4.88-1.07,4.88-3.21c0-.92-.53-1.66-1.58-2.24-1.05-.57-2.32-1.09-3.8-1.55-1.48-.46-3-.93-4.56-1.41-1.56-.48-2.86-1.34-3.91-2.58-1.05-1.24-1.58-2.82-1.58-4.73,0-2.64,1-4.76,3.01-6.37,2.01-1.61,4.5-2.41,7.49-2.41,2.37,0,4.48.53,6.34,1.58,1.85,1.05,3.28,2.52,4.27,4.39l-5.22,2.93c-1-2.18-2.79-3.27-5.39-3.27-1.19,0-2.18.26-2.98.76-.8.51-1.2,1.26-1.2,2.24Z"/>
      <path class="cls-2" d="M168.63,62.8c3.29,0,5.95,1.05,7.97,3.16,2.03,2.1,3.04,4.99,3.04,8.66v17.61h-6.2v-16.98c0-2.14-.57-3.79-1.72-4.93s-2.72-1.72-4.7-1.72c-2.18,0-3.94.68-5.28,2.04-1.34,1.36-2.01,3.43-2.01,6.23v15.38h-6.2v-40.16h6.2v15.15c1.87-2.94,4.84-4.42,8.89-4.42Z"/>
      <path class="cls-2" d="M189.46,80.53c.46,2.18,1.51,3.85,3.16,5.02,1.64,1.17,3.65,1.75,6.02,1.75,3.29,0,5.76-1.18,7.4-3.56l5.11,2.98c-2.83,4.17-7.02,6.25-12.57,6.25-4.67,0-8.43-1.42-11.3-4.27s-4.3-6.46-4.3-10.82,1.42-7.87,4.25-10.76c2.83-2.89,6.46-4.33,10.9-4.33,4.21,0,7.66,1.47,10.36,4.42,2.7,2.95,4.04,6.52,4.04,10.73,0,.65-.08,1.51-.23,2.58h-22.83ZM189.4,75.48h16.87c-.42-2.33-1.39-4.09-2.9-5.28-1.51-1.19-3.28-1.78-5.31-1.78-2.3,0-4.21.63-5.74,1.89-1.53,1.26-2.51,2.98-2.93,5.16Z"/>
      <path class="cls-2" d="M222.45,68.37c1.57-3.56,4.51-5.34,8.84-5.34v6.71c-2.37-.15-4.44.41-6.2,1.69-1.76,1.28-2.64,3.39-2.64,6.34v14.46h-6.2v-28.69h6.2v4.82Z"/>
      <path class="cls-2" d="M237.71,80.53c.46,2.18,1.51,3.85,3.16,5.02,1.64,1.17,3.65,1.75,6.02,1.75,3.29,0,5.76-1.18,7.4-3.56l5.11,2.98c-2.83,4.17-7.02,6.25-12.57,6.25-4.67,0-8.43-1.42-11.3-4.27s-4.3-6.46-4.3-10.82,1.42-7.87,4.25-10.76c2.83-2.89,6.46-4.33,10.9-4.33,4.21,0,7.66,1.47,10.36,4.42,2.7,2.95,4.04,6.52,4.04,10.73,0,.65-.08,1.51-.23,2.58h-22.83ZM237.65,75.48h16.87c-.42-2.33-1.39-4.09-2.9-5.28-1.51-1.19-3.28-1.78-5.31-1.78-2.3,0-4.21.63-5.74,1.89-1.53,1.26-2.51,2.98-2.93,5.16Z"/>
      <path class="cls-2" d="M268.98,91.66c-.84.84-1.86,1.26-3.04,1.26s-2.2-.42-3.04-1.26c-.84-.84-1.26-1.85-1.26-3.04s.41-2.2,1.23-3.04c.82-.84,1.84-1.26,3.07-1.26s2.2.42,3.04,1.26c.84.84,1.26,1.86,1.26,3.04s-.42,2.2-1.26,3.04Z"/>
    </g>
  </g>
</svg>